<svg xmlns:svg="http://www.w3.org/2000/svg" width="22.5mm" height="22.5mm" version="1.1" xmlns="http://www.w3.org/2000/svg"><svg:rect x="2mm" y="2mm" width="0.5mm" height="0.5mm" /><svg:rect x="2.5mm" y="2mm" width="0.5mm" height="0.5mm" /><svg:rect x="3mm" y="2mm" width="0.5mm" height="0.5mm" /><svg:rect x="3.5mm" y="2mm" width="0.5mm" height="0.5mm" /><svg:rect x="4mm" y="2mm" width="0.5mm" height="0.5mm" /><svg:rect x="4.5mm" y="2mm" width="0.5mm" height="0.5mm" /><svg:rect x="5mm" y="2mm" width="0.5mm" height="0.5mm" /><svg:rect x="6.5mm" y="2mm" width="0.5mm" height="0.5mm" /><svg:rect x="8.5mm" y="2mm" width="0.5mm" height="0.5mm" /><svg:rect x="9mm" y="2mm" width="0.5mm" height="0.5mm" /><svg:rect x="10.5mm" y="2mm" width="0.5mm" height="0.5mm" /><svg:rect x="11.5mm" y="2mm" width="0.5mm" height="0.5mm" /><svg:rect x="12.5mm" y="2mm" width="0.5mm" height="0.5mm" /><svg:rect x="13.5mm" y="2mm" width="0.5mm" height="0.5mm" /><svg:rect x="16mm" y="2mm" width="0.5mm" height="0.5mm" /><svg:rect x="17mm" y="2mm" width="0.5mm" height="0.5mm" /><svg:rect x="17.5mm" y="2mm" width="0.5mm" height="0.5mm" /><svg:rect x="18mm" y="2mm" width="0.5mm" height="0.5mm" /><svg:rect x="18.5mm" y="2mm" width="0.5mm" height="0.5mm" /><svg:rect x="19mm" y="2mm" width="0.5mm" height="0.5mm" /><svg:rect x="19.5mm" y="2mm" width="0.5mm" height="0.5mm" /><svg:rect x="20mm" y="2mm" width="0.5mm" height="0.5mm" /><svg:rect x="2mm" y="2.5mm" width="0.5mm" height="0.5mm" /><svg:rect x="5mm" y="2.5mm" width="0.5mm" height="0.5mm" /><svg:rect x="6mm" y="2.5mm" width="0.5mm" height="0.5mm" /><svg:rect x="6.5mm" y="2.5mm" width="0.5mm" height="0.5mm" /><svg:rect x="7.5mm" y="2.5mm" width="0.5mm" height="0.5mm" /><svg:rect x="8mm" y="2.5mm" width="0.5mm" height="0.5mm" /><svg:rect x="9mm" y="2.5mm" width="0.5mm" height="0.5mm" /><svg:rect x="9.5mm" y="2.5mm" width="0.5mm" height="0.5mm" /><svg:rect x="12mm" y="2.5mm" width="0.5mm" height="0.5mm" /><svg:rect x="12.5mm" y="2.5mm" width="0.5mm" height="0.5mm" /><svg:rect x="14mm" y="2.5mm" width="0.5mm" height="0.5mm" /><svg:rect x="15.5mm" y="2.5mm" width="0.5mm" height="0.5mm" /><svg:rect x="17mm" y="2.5mm" width="0.5mm" height="0.5mm" /><svg:rect x="20mm" y="2.5mm" width="0.5mm" height="0.5mm" /><svg:rect x="2mm" y="3mm" width="0.5mm" height="0.5mm" /><svg:rect x="3mm" y="3mm" width="0.5mm" height="0.5mm" /><svg:rect x="3.5mm" y="3mm" width="0.5mm" height="0.5mm" /><svg:rect x="4mm" y="3mm" width="0.5mm" height="0.5mm" /><svg:rect x="5mm" y="3mm" width="0.5mm" height="0.5mm" /><svg:rect x="6.5mm" y="3mm" width="0.5mm" height="0.5mm" /><svg:rect x="7mm" y="3mm" width="0.5mm" height="0.5mm" /><svg:rect x="7.5mm" y="3mm" width="0.5mm" height="0.5mm" /><svg:rect x="9mm" y="3mm" width="0.5mm" height="0.5mm" /><svg:rect x="12mm" y="3mm" width="0.5mm" height="0.5mm" /><svg:rect x="12.5mm" y="3mm" width="0.5mm" height="0.5mm" /><svg:rect x="13mm" y="3mm" width="0.5mm" height="0.5mm" /><svg:rect x="13.5mm" y="3mm" width="0.5mm" height="0.5mm" /><svg:rect x="14mm" y="3mm" width="0.5mm" height="0.5mm" /><svg:rect x="15mm" y="3mm" width="0.5mm" height="0.5mm" /><svg:rect x="17mm" y="3mm" width="0.5mm" height="0.5mm" /><svg:rect x="18mm" y="3mm" width="0.5mm" height="0.5mm" /><svg:rect x="18.5mm" y="3mm" width="0.5mm" height="0.5mm" /><svg:rect x="19mm" y="3mm" width="0.5mm" height="0.5mm" /><svg:rect x="20mm" y="3mm" width="0.5mm" height="0.5mm" /><svg:rect x="2mm" y="3.5mm" width="0.5mm" height="0.5mm" /><svg:rect x="3mm" y="3.5mm" width="0.5mm" height="0.5mm" /><svg:rect x="3.5mm" y="3.5mm" width="0.5mm" height="0.5mm" /><svg:rect x="4mm" y="3.5mm" width="0.5mm" height="0.5mm" /><svg:rect x="5mm" y="3.5mm" width="0.5mm" height="0.5mm" /><svg:rect x="6mm" y="3.5mm" width="0.5mm" height="0.5mm" /><svg:rect x="6.5mm" y="3.5mm" width="0.5mm" height="0.5mm" /><svg:rect x="7.5mm" y="3.5mm" width="0.5mm" height="0.5mm" /><svg:rect x="8.5mm" y="3.5mm" width="0.5mm" height="0.5mm" /><svg:rect x="9.5mm" y="3.5mm" width="0.5mm" height="0.5mm" /><svg:rect x="10mm" y="3.5mm" width="0.5mm" height="0.5mm" /><svg:rect x="12mm" y="3.5mm" width="0.5mm" height="0.5mm" /><svg:rect x="13mm" y="3.5mm" width="0.5mm" height="0.5mm" /><svg:rect x="14.5mm" y="3.5mm" width="0.5mm" height="0.5mm" /><svg:rect x="15mm" y="3.5mm" width="0.5mm" height="0.5mm" /><svg:rect x="15.5mm" y="3.5mm" width="0.5mm" height="0.5mm" /><svg:rect x="17mm" y="3.5mm" width="0.5mm" height="0.5mm" /><svg:rect x="18mm" y="3.5mm" width="0.5mm" height="0.5mm" /><svg:rect x="18.5mm" y="3.5mm" width="0.5mm" height="0.5mm" /><svg:rect x="19mm" y="3.5mm" width="0.5mm" height="0.5mm" /><svg:rect x="20mm" y="3.5mm" width="0.5mm" height="0.5mm" /><svg:rect x="2mm" y="4mm" width="0.5mm" height="0.5mm" /><svg:rect x="3mm" y="4mm" width="0.5mm" height="0.5mm" /><svg:rect x="3.5mm" y="4mm" width="0.5mm" height="0.5mm" /><svg:rect x="4mm" y="4mm" width="0.5mm" height="0.5mm" /><svg:rect x="5mm" y="4mm" width="0.5mm" height="0.5mm" /><svg:rect x="7mm" y="4mm" width="0.5mm" height="0.5mm" /><svg:rect x="8mm" y="4mm" width="0.5mm" height="0.5mm" /><svg:rect x="9mm" y="4mm" width="0.5mm" height="0.5mm" /><svg:rect x="10mm" y="4mm" width="0.5mm" height="0.5mm" /><svg:rect x="10.5mm" y="4mm" width="0.5mm" height="0.5mm" /><svg:rect x="11mm" y="4mm" width="0.5mm" height="0.5mm" /><svg:rect x="11.5mm" y="4mm" width="0.5mm" height="0.5mm" /><svg:rect x="12mm" y="4mm" width="0.5mm" height="0.5mm" /><svg:rect x="12.5mm" y="4mm" width="0.5mm" height="0.5mm" /><svg:rect x="13.5mm" y="4mm" width="0.5mm" height="0.5mm" /><svg:rect x="14.5mm" y="4mm" width="0.5mm" height="0.5mm" /><svg:rect x="16mm" y="4mm" width="0.5mm" height="0.5mm" /><svg:rect x="17mm" y="4mm" width="0.5mm" height="0.5mm" /><svg:rect x="18mm" y="4mm" width="0.5mm" height="0.5mm" /><svg:rect x="18.5mm" y="4mm" width="0.5mm" height="0.5mm" /><svg:rect x="19mm" y="4mm" width="0.5mm" height="0.5mm" /><svg:rect x="20mm" y="4mm" width="0.5mm" height="0.5mm" /><svg:rect x="2mm" y="4.5mm" width="0.5mm" height="0.5mm" /><svg:rect x="5mm" y="4.5mm" width="0.5mm" height="0.5mm" /><svg:rect x="6mm" y="4.5mm" width="0.5mm" height="0.5mm" /><svg:rect x="7mm" y="4.5mm" width="0.5mm" height="0.5mm" /><svg:rect x="8.5mm" y="4.5mm" width="0.5mm" height="0.5mm" /><svg:rect x="9.5mm" y="4.5mm" width="0.5mm" height="0.5mm" /><svg:rect x="11mm" y="4.5mm" width="0.5mm" height="0.5mm" /><svg:rect x="12mm" y="4.5mm" width="0.5mm" height="0.5mm" /><svg:rect x="12.5mm" y="4.5mm" width="0.5mm" height="0.5mm" /><svg:rect x="13mm" y="4.5mm" width="0.5mm" height="0.5mm" /><svg:rect x="14mm" y="4.5mm" width="0.5mm" height="0.5mm" /><svg:rect x="14.5mm" y="4.5mm" width="0.5mm" height="0.5mm" /><svg:rect x="15mm" y="4.5mm" width="0.5mm" height="0.5mm" /><svg:rect x="15.5mm" y="4.5mm" width="0.5mm" height="0.5mm" /><svg:rect x="16mm" y="4.5mm" width="0.5mm" height="0.5mm" /><svg:rect x="17mm" y="4.5mm" width="0.5mm" height="0.5mm" /><svg:rect x="20mm" y="4.5mm" width="0.5mm" height="0.5mm" /><svg:rect x="2mm" y="5mm" width="0.5mm" height="0.5mm" /><svg:rect x="2.5mm" y="5mm" width="0.5mm" height="0.5mm" /><svg:rect x="3mm" y="5mm" width="0.5mm" height="0.5mm" /><svg:rect x="3.5mm" y="5mm" width="0.5mm" height="0.5mm" /><svg:rect x="4mm" y="5mm" width="0.5mm" height="0.5mm" /><svg:rect x="4.5mm" y="5mm" width="0.5mm" height="0.5mm" /><svg:rect x="5mm" y="5mm" width="0.5mm" height="0.5mm" /><svg:rect x="6mm" y="5mm" width="0.5mm" height="0.5mm" /><svg:rect x="7mm" y="5mm" width="0.5mm" height="0.5mm" /><svg:rect x="8mm" y="5mm" width="0.5mm" height="0.5mm" /><svg:rect x="9mm" y="5mm" width="0.5mm" height="0.5mm" /><svg:rect x="10mm" y="5mm" width="0.5mm" height="0.5mm" /><svg:rect x="11mm" y="5mm" width="0.5mm" height="0.5mm" /><svg:rect x="12mm" y="5mm" width="0.5mm" height="0.5mm" /><svg:rect x="13mm" y="5mm" width="0.5mm" height="0.5mm" /><svg:rect x="14mm" y="5mm" width="0.5mm" height="0.5mm" /><svg:rect x="15mm" y="5mm" width="0.5mm" height="0.5mm" /><svg:rect x="16mm" y="5mm" width="0.5mm" height="0.5mm" /><svg:rect x="17mm" y="5mm" width="0.5mm" height="0.5mm" /><svg:rect x="17.5mm" y="5mm" width="0.5mm" height="0.5mm" /><svg:rect x="18mm" y="5mm" width="0.5mm" height="0.5mm" /><svg:rect x="18.5mm" y="5mm" width="0.5mm" height="0.5mm" /><svg:rect x="19mm" y="5mm" width="0.5mm" height="0.5mm" /><svg:rect x="19.5mm" y="5mm" width="0.5mm" height="0.5mm" /><svg:rect x="20mm" y="5mm" width="0.5mm" height="0.5mm" /><svg:rect x="8mm" y="5.5mm" width="0.5mm" height="0.5mm" /><svg:rect x="9.5mm" y="5.5mm" width="0.5mm" height="0.5mm" /><svg:rect x="10mm" y="5.5mm" width="0.5mm" height="0.5mm" /><svg:rect x="11.5mm" y="5.5mm" width="0.5mm" height="0.5mm" /><svg:rect x="12.5mm" y="5.5mm" width="0.5mm" height="0.5mm" /><svg:rect x="2mm" y="6mm" width="0.5mm" height="0.5mm" /><svg:rect x="2.5mm" y="6mm" width="0.5mm" height="0.5mm" /><svg:rect x="3mm" y="6mm" width="0.5mm" height="0.5mm" /><svg:rect x="3.5mm" y="6mm" width="0.5mm" height="0.5mm" /><svg:rect x="4mm" y="6mm" width="0.5mm" height="0.5mm" /><svg:rect x="5mm" y="6mm" width="0.5mm" height="0.5mm" /><svg:rect x="5.5mm" y="6mm" width="0.5mm" height="0.5mm" /><svg:rect x="6mm" y="6mm" width="0.5mm" height="0.5mm" /><svg:rect x="6.5mm" y="6mm" width="0.5mm" height="0.5mm" /><svg:rect x="7mm" y="6mm" width="0.5mm" height="0.5mm" /><svg:rect x="8mm" y="6mm" width="0.5mm" height="0.5mm" /><svg:rect x="8.5mm" y="6mm" width="0.5mm" height="0.5mm" /><svg:rect x="9.5mm" y="6mm" width="0.5mm" height="0.5mm" /><svg:rect x="10mm" y="6mm" width="0.5mm" height="0.5mm" /><svg:rect x="13mm" y="6mm" width="0.5mm" height="0.5mm" /><svg:rect x="14.5mm" y="6mm" width="0.5mm" height="0.5mm" /><svg:rect x="15mm" y="6mm" width="0.5mm" height="0.5mm" /><svg:rect x="15.5mm" y="6mm" width="0.5mm" height="0.5mm" /><svg:rect x="16mm" y="6mm" width="0.5mm" height="0.5mm" /><svg:rect x="16.5mm" y="6mm" width="0.5mm" height="0.5mm" /><svg:rect x="17.5mm" y="6mm" width="0.5mm" height="0.5mm" /><svg:rect x="18.5mm" y="6mm" width="0.5mm" height="0.5mm" /><svg:rect x="19.5mm" y="6mm" width="0.5mm" height="0.5mm" /><svg:rect x="2.5mm" y="6.5mm" width="0.5mm" height="0.5mm" /><svg:rect x="3.5mm" y="6.5mm" width="0.5mm" height="0.5mm" /><svg:rect x="4mm" y="6.5mm" width="0.5mm" height="0.5mm" /><svg:rect x="4.5mm" y="6.5mm" width="0.5mm" height="0.5mm" /><svg:rect x="5.5mm" y="6.5mm" width="0.5mm" height="0.5mm" /><svg:rect x="6mm" y="6.5mm" width="0.5mm" height="0.5mm" /><svg:rect x="9mm" y="6.5mm" width="0.5mm" height="0.5mm" /><svg:rect x="10mm" y="6.5mm" width="0.5mm" height="0.5mm" /><svg:rect x="10.5mm" y="6.5mm" width="0.5mm" height="0.5mm" /><svg:rect x="11mm" y="6.5mm" width="0.5mm" height="0.5mm" /><svg:rect x="11.5mm" y="6.5mm" width="0.5mm" height="0.5mm" /><svg:rect x="12mm" y="6.5mm" width="0.5mm" height="0.5mm" /><svg:rect x="12.5mm" y="6.5mm" width="0.5mm" height="0.5mm" /><svg:rect x="14.5mm" y="6.5mm" width="0.5mm" height="0.5mm" /><svg:rect x="16mm" y="6.5mm" width="0.5mm" height="0.5mm" /><svg:rect x="17.5mm" y="6.5mm" width="0.5mm" height="0.5mm" /><svg:rect x="19mm" y="6.5mm" width="0.5mm" height="0.5mm" /><svg:rect x="2mm" y="7mm" width="0.5mm" height="0.5mm" /><svg:rect x="2.5mm" y="7mm" width="0.5mm" height="0.5mm" /><svg:rect x="5mm" y="7mm" width="0.5mm" height="0.5mm" /><svg:rect x="5.5mm" y="7mm" width="0.5mm" height="0.5mm" /><svg:rect x="6.5mm" y="7mm" width="0.5mm" height="0.5mm" /><svg:rect x="7mm" y="7mm" width="0.5mm" height="0.5mm" /><svg:rect x="7.5mm" y="7mm" width="0.5mm" height="0.5mm" /><svg:rect x="8mm" y="7mm" width="0.5mm" height="0.5mm" /><svg:rect x="9mm" y="7mm" width="0.5mm" height="0.5mm" /><svg:rect x="9.5mm" y="7mm" width="0.5mm" height="0.5mm" /><svg:rect x="10.5mm" y="7mm" width="0.5mm" height="0.5mm" /><svg:rect x="12.5mm" y="7mm" width="0.5mm" height="0.5mm" /><svg:rect x="13mm" y="7mm" width="0.5mm" height="0.5mm" /><svg:rect x="14mm" y="7mm" width="0.5mm" height="0.5mm" /><svg:rect x="14.5mm" y="7mm" width="0.5mm" height="0.5mm" /><svg:rect x="15.5mm" y="7mm" width="0.5mm" height="0.5mm" /><svg:rect x="16mm" y="7mm" width="0.5mm" height="0.5mm" /><svg:rect x="17mm" y="7mm" width="0.5mm" height="0.5mm" /><svg:rect x="17.5mm" y="7mm" width="0.5mm" height="0.5mm" /><svg:rect x="19mm" y="7mm" width="0.5mm" height="0.5mm" /><svg:rect x="20mm" y="7mm" width="0.5mm" height="0.5mm" /><svg:rect x="2.5mm" y="7.5mm" width="0.5mm" height="0.5mm" /><svg:rect x="3mm" y="7.5mm" width="0.5mm" height="0.5mm" /><svg:rect x="3.5mm" y="7.5mm" width="0.5mm" height="0.5mm" /><svg:rect x="4mm" y="7.5mm" width="0.5mm" height="0.5mm" /><svg:rect x="6.5mm" y="7.5mm" width="0.5mm" height="0.5mm" /><svg:rect x="7mm" y="7.5mm" width="0.5mm" height="0.5mm" /><svg:rect x="7.5mm" y="7.5mm" width="0.5mm" height="0.5mm" /><svg:rect x="10mm" y="7.5mm" width="0.5mm" height="0.5mm" /><svg:rect x="11mm" y="7.5mm" width="0.5mm" height="0.5mm" /><svg:rect x="11.5mm" y="7.5mm" width="0.5mm" height="0.5mm" /><svg:rect x="12mm" y="7.5mm" width="0.5mm" height="0.5mm" /><svg:rect x="12.5mm" y="7.5mm" width="0.5mm" height="0.5mm" /><svg:rect x="13mm" y="7.5mm" width="0.5mm" height="0.5mm" /><svg:rect x="14mm" y="7.5mm" width="0.5mm" height="0.5mm" /><svg:rect x="15mm" y="7.5mm" width="0.5mm" height="0.5mm" /><svg:rect x="15.5mm" y="7.5mm" width="0.5mm" height="0.5mm" /><svg:rect x="16.5mm" y="7.5mm" width="0.5mm" height="0.5mm" /><svg:rect x="17mm" y="7.5mm" width="0.5mm" height="0.5mm" /><svg:rect x="17.5mm" y="7.5mm" width="0.5mm" height="0.5mm" /><svg:rect x="18mm" y="7.5mm" width="0.5mm" height="0.5mm" /><svg:rect x="19.5mm" y="7.5mm" width="0.5mm" height="0.5mm" /><svg:rect x="2mm" y="8mm" width="0.5mm" height="0.5mm" /><svg:rect x="2.5mm" y="8mm" width="0.5mm" height="0.5mm" /><svg:rect x="4mm" y="8mm" width="0.5mm" height="0.5mm" /><svg:rect x="4.5mm" y="8mm" width="0.5mm" height="0.5mm" /><svg:rect x="5mm" y="8mm" width="0.5mm" height="0.5mm" /><svg:rect x="7.5mm" y="8mm" width="0.5mm" height="0.5mm" /><svg:rect x="8.5mm" y="8mm" width="0.5mm" height="0.5mm" /><svg:rect x="9.5mm" y="8mm" width="0.5mm" height="0.5mm" /><svg:rect x="13mm" y="8mm" width="0.5mm" height="0.5mm" /><svg:rect x="14.5mm" y="8mm" width="0.5mm" height="0.5mm" /><svg:rect x="16.5mm" y="8mm" width="0.5mm" height="0.5mm" /><svg:rect x="17mm" y="8mm" width="0.5mm" height="0.5mm" /><svg:rect x="18mm" y="8mm" width="0.5mm" height="0.5mm" /><svg:rect x="19mm" y="8mm" width="0.5mm" height="0.5mm" /><svg:rect x="19.5mm" y="8mm" width="0.5mm" height="0.5mm" /><svg:rect x="2.5mm" y="8.5mm" width="0.5mm" height="0.5mm" /><svg:rect x="6mm" y="8.5mm" width="0.5mm" height="0.5mm" /><svg:rect x="7mm" y="8.5mm" width="0.5mm" height="0.5mm" /><svg:rect x="8mm" y="8.5mm" width="0.5mm" height="0.5mm" /><svg:rect x="9mm" y="8.5mm" width="0.5mm" height="0.5mm" /><svg:rect x="11.5mm" y="8.5mm" width="0.5mm" height="0.5mm" /><svg:rect x="12.5mm" y="8.5mm" width="0.5mm" height="0.5mm" /><svg:rect x="13mm" y="8.5mm" width="0.5mm" height="0.5mm" /><svg:rect x="13.5mm" y="8.5mm" width="0.5mm" height="0.5mm" /><svg:rect x="14mm" y="8.5mm" width="0.5mm" height="0.5mm" /><svg:rect x="16mm" y="8.5mm" width="0.5mm" height="0.5mm" /><svg:rect x="17.5mm" y="8.5mm" width="0.5mm" height="0.5mm" /><svg:rect x="18.5mm" y="8.5mm" width="0.5mm" height="0.5mm" /><svg:rect x="3mm" y="9mm" width="0.5mm" height="0.5mm" /><svg:rect x="3.5mm" y="9mm" width="0.5mm" height="0.5mm" /><svg:rect x="4.5mm" y="9mm" width="0.5mm" height="0.5mm" /><svg:rect x="5mm" y="9mm" width="0.5mm" height="0.5mm" /><svg:rect x="6mm" y="9mm" width="0.5mm" height="0.5mm" /><svg:rect x="8.5mm" y="9mm" width="0.5mm" height="0.5mm" /><svg:rect x="9mm" y="9mm" width="0.5mm" height="0.5mm" /><svg:rect x="9.5mm" y="9mm" width="0.5mm" height="0.5mm" /><svg:rect x="10mm" y="9mm" width="0.5mm" height="0.5mm" /><svg:rect x="10.5mm" y="9mm" width="0.5mm" height="0.5mm" /><svg:rect x="11mm" y="9mm" width="0.5mm" height="0.5mm" /><svg:rect x="12mm" y="9mm" width="0.5mm" height="0.5mm" /><svg:rect x="14mm" y="9mm" width="0.5mm" height="0.5mm" /><svg:rect x="14.5mm" y="9mm" width="0.5mm" height="0.5mm" /><svg:rect x="15mm" y="9mm" width="0.5mm" height="0.5mm" /><svg:rect x="15.5mm" y="9mm" width="0.5mm" height="0.5mm" /><svg:rect x="17mm" y="9mm" width="0.5mm" height="0.5mm" /><svg:rect x="18mm" y="9mm" width="0.5mm" height="0.5mm" /><svg:rect x="18.5mm" y="9mm" width="0.5mm" height="0.5mm" /><svg:rect x="20mm" y="9mm" width="0.5mm" height="0.5mm" /><svg:rect x="2mm" y="9.5mm" width="0.5mm" height="0.5mm" /><svg:rect x="3.5mm" y="9.5mm" width="0.5mm" height="0.5mm" /><svg:rect x="4mm" y="9.5mm" width="0.5mm" height="0.5mm" /><svg:rect x="5.5mm" y="9.5mm" width="0.5mm" height="0.5mm" /><svg:rect x="6mm" y="9.5mm" width="0.5mm" height="0.5mm" /><svg:rect x="8mm" y="9.5mm" width="0.5mm" height="0.5mm" /><svg:rect x="9.5mm" y="9.5mm" width="0.5mm" height="0.5mm" /><svg:rect x="10mm" y="9.5mm" width="0.5mm" height="0.5mm" /><svg:rect x="11mm" y="9.5mm" width="0.5mm" height="0.5mm" /><svg:rect x="11.5mm" y="9.5mm" width="0.5mm" height="0.5mm" /><svg:rect x="12.5mm" y="9.5mm" width="0.5mm" height="0.5mm" /><svg:rect x="13.5mm" y="9.5mm" width="0.5mm" height="0.5mm" /><svg:rect x="14mm" y="9.5mm" width="0.5mm" height="0.5mm" /><svg:rect x="15.5mm" y="9.5mm" width="0.5mm" height="0.5mm" /><svg:rect x="16.5mm" y="9.5mm" width="0.5mm" height="0.5mm" /><svg:rect x="2mm" y="10mm" width="0.5mm" height="0.5mm" /><svg:rect x="3mm" y="10mm" width="0.5mm" height="0.5mm" /><svg:rect x="3.5mm" y="10mm" width="0.5mm" height="0.5mm" /><svg:rect x="4.5mm" y="10mm" width="0.5mm" height="0.5mm" /><svg:rect x="5mm" y="10mm" width="0.5mm" height="0.5mm" /><svg:rect x="5.5mm" y="10mm" width="0.5mm" height="0.5mm" /><svg:rect x="8mm" y="10mm" width="0.5mm" height="0.5mm" /><svg:rect x="8.5mm" y="10mm" width="0.5mm" height="0.5mm" /><svg:rect x="9.5mm" y="10mm" width="0.5mm" height="0.5mm" /><svg:rect x="10.5mm" y="10mm" width="0.5mm" height="0.5mm" /><svg:rect x="11mm" y="10mm" width="0.5mm" height="0.5mm" /><svg:rect x="12mm" y="10mm" width="0.5mm" height="0.5mm" /><svg:rect x="13mm" y="10mm" width="0.5mm" height="0.5mm" /><svg:rect x="14.5mm" y="10mm" width="0.5mm" height="0.5mm" /><svg:rect x="15mm" y="10mm" width="0.5mm" height="0.5mm" /><svg:rect x="16mm" y="10mm" width="0.5mm" height="0.5mm" /><svg:rect x="16.5mm" y="10mm" width="0.5mm" height="0.5mm" /><svg:rect x="17mm" y="10mm" width="0.5mm" height="0.5mm" /><svg:rect x="17.5mm" y="10mm" width="0.5mm" height="0.5mm" /><svg:rect x="18mm" y="10mm" width="0.5mm" height="0.5mm" /><svg:rect x="18.5mm" y="10mm" width="0.5mm" height="0.5mm" /><svg:rect x="19mm" y="10mm" width="0.5mm" height="0.5mm" /><svg:rect x="2mm" y="10.5mm" width="0.5mm" height="0.5mm" /><svg:rect x="2.5mm" y="10.5mm" width="0.5mm" height="0.5mm" /><svg:rect x="3mm" y="10.5mm" width="0.5mm" height="0.5mm" /><svg:rect x="4.5mm" y="10.5mm" width="0.5mm" height="0.5mm" /><svg:rect x="6.5mm" y="10.5mm" width="0.5mm" height="0.5mm" /><svg:rect x="7mm" y="10.5mm" width="0.5mm" height="0.5mm" /><svg:rect x="9mm" y="10.5mm" width="0.5mm" height="0.5mm" /><svg:rect x="10mm" y="10.5mm" width="0.5mm" height="0.5mm" /><svg:rect x="11mm" y="10.5mm" width="0.5mm" height="0.5mm" /><svg:rect x="11.5mm" y="10.5mm" width="0.5mm" height="0.5mm" /><svg:rect x="12.5mm" y="10.5mm" width="0.5mm" height="0.5mm" /><svg:rect x="13mm" y="10.5mm" width="0.5mm" height="0.5mm" /><svg:rect x="13.5mm" y="10.5mm" width="0.5mm" height="0.5mm" /><svg:rect x="14mm" y="10.5mm" width="0.5mm" height="0.5mm" /><svg:rect x="15mm" y="10.5mm" width="0.5mm" height="0.5mm" /><svg:rect x="16mm" y="10.5mm" width="0.5mm" height="0.5mm" /><svg:rect x="16.5mm" y="10.5mm" width="0.5mm" height="0.5mm" /><svg:rect x="17.5mm" y="10.5mm" width="0.5mm" height="0.5mm" /><svg:rect x="18.5mm" y="10.5mm" width="0.5mm" height="0.5mm" /><svg:rect x="19.5mm" y="10.5mm" width="0.5mm" height="0.5mm" /><svg:rect x="2.5mm" y="11mm" width="0.5mm" height="0.5mm" /><svg:rect x="3mm" y="11mm" width="0.5mm" height="0.5mm" /><svg:rect x="4mm" y="11mm" width="0.5mm" height="0.5mm" /><svg:rect x="5mm" y="11mm" width="0.5mm" height="0.5mm" /><svg:rect x="5.5mm" y="11mm" width="0.5mm" height="0.5mm" /><svg:rect x="6mm" y="11mm" width="0.5mm" height="0.5mm" /><svg:rect x="7mm" y="11mm" width="0.5mm" height="0.5mm" /><svg:rect x="7.5mm" y="11mm" width="0.5mm" height="0.5mm" /><svg:rect x="8mm" y="11mm" width="0.5mm" height="0.5mm" /><svg:rect x="8.5mm" y="11mm" width="0.5mm" height="0.5mm" /><svg:rect x="9.5mm" y="11mm" width="0.5mm" height="0.5mm" /><svg:rect x="10mm" y="11mm" width="0.5mm" height="0.5mm" /><svg:rect x="10.5mm" y="11mm" width="0.5mm" height="0.5mm" /><svg:rect x="12mm" y="11mm" width="0.5mm" height="0.5mm" /><svg:rect x="15.5mm" y="11mm" width="0.5mm" height="0.5mm" /><svg:rect x="16mm" y="11mm" width="0.5mm" height="0.5mm" /><svg:rect x="17.5mm" y="11mm" width="0.5mm" height="0.5mm" /><svg:rect x="20mm" y="11mm" width="0.5mm" height="0.5mm" /><svg:rect x="2mm" y="11.5mm" width="0.5mm" height="0.5mm" /><svg:rect x="3.5mm" y="11.5mm" width="0.5mm" height="0.5mm" /><svg:rect x="5.5mm" y="11.5mm" width="0.5mm" height="0.5mm" /><svg:rect x="6mm" y="11.5mm" width="0.5mm" height="0.5mm" /><svg:rect x="6.5mm" y="11.5mm" width="0.5mm" height="0.5mm" /><svg:rect x="7.5mm" y="11.5mm" width="0.5mm" height="0.5mm" /><svg:rect x="9mm" y="11.5mm" width="0.5mm" height="0.5mm" /><svg:rect x="11mm" y="11.5mm" width="0.5mm" height="0.5mm" /><svg:rect x="12.5mm" y="11.5mm" width="0.5mm" height="0.5mm" /><svg:rect x="13mm" y="11.5mm" width="0.5mm" height="0.5mm" /><svg:rect x="15.5mm" y="11.5mm" width="0.5mm" height="0.5mm" /><svg:rect x="16.5mm" y="11.5mm" width="0.5mm" height="0.5mm" /><svg:rect x="17mm" y="11.5mm" width="0.5mm" height="0.5mm" /><svg:rect x="19.5mm" y="11.5mm" width="0.5mm" height="0.5mm" /><svg:rect x="20mm" y="11.5mm" width="0.5mm" height="0.5mm" /><svg:rect x="3mm" y="12mm" width="0.5mm" height="0.5mm" /><svg:rect x="5mm" y="12mm" width="0.5mm" height="0.5mm" /><svg:rect x="6.5mm" y="12mm" width="0.5mm" height="0.5mm" /><svg:rect x="7mm" y="12mm" width="0.5mm" height="0.5mm" /><svg:rect x="7.5mm" y="12mm" width="0.5mm" height="0.5mm" /><svg:rect x="8.5mm" y="12mm" width="0.5mm" height="0.5mm" /><svg:rect x="9.5mm" y="12mm" width="0.5mm" height="0.5mm" /><svg:rect x="10.5mm" y="12mm" width="0.5mm" height="0.5mm" /><svg:rect x="12mm" y="12mm" width="0.5mm" height="0.5mm" /><svg:rect x="14mm" y="12mm" width="0.5mm" height="0.5mm" /><svg:rect x="14.5mm" y="12mm" width="0.5mm" height="0.5mm" /><svg:rect x="15mm" y="12mm" width="0.5mm" height="0.5mm" /><svg:rect x="15.5mm" y="12mm" width="0.5mm" height="0.5mm" /><svg:rect x="17mm" y="12mm" width="0.5mm" height="0.5mm" /><svg:rect x="18mm" y="12mm" width="0.5mm" height="0.5mm" /><svg:rect x="19mm" y="12mm" width="0.5mm" height="0.5mm" /><svg:rect x="2mm" y="12.5mm" width="0.5mm" height="0.5mm" /><svg:rect x="3mm" y="12.5mm" width="0.5mm" height="0.5mm" /><svg:rect x="4mm" y="12.5mm" width="0.5mm" height="0.5mm" /><svg:rect x="5.5mm" y="12.5mm" width="0.5mm" height="0.5mm" /><svg:rect x="6mm" y="12.5mm" width="0.5mm" height="0.5mm" /><svg:rect x="6.5mm" y="12.5mm" width="0.5mm" height="0.5mm" /><svg:rect x="7mm" y="12.5mm" width="0.5mm" height="0.5mm" /><svg:rect x="8mm" y="12.5mm" width="0.5mm" height="0.5mm" /><svg:rect x="9mm" y="12.5mm" width="0.5mm" height="0.5mm" /><svg:rect x="10mm" y="12.5mm" width="0.5mm" height="0.5mm" /><svg:rect x="11.5mm" y="12.5mm" width="0.5mm" height="0.5mm" /><svg:rect x="12.5mm" y="12.5mm" width="0.5mm" height="0.5mm" /><svg:rect x="13.5mm" y="12.5mm" width="0.5mm" height="0.5mm" /><svg:rect x="14mm" y="12.5mm" width="0.5mm" height="0.5mm" /><svg:rect x="14.5mm" y="12.5mm" width="0.5mm" height="0.5mm" /><svg:rect x="16mm" y="12.5mm" width="0.5mm" height="0.5mm" /><svg:rect x="17.5mm" y="12.5mm" width="0.5mm" height="0.5mm" /><svg:rect x="18.5mm" y="12.5mm" width="0.5mm" height="0.5mm" /><svg:rect x="19mm" y="12.5mm" width="0.5mm" height="0.5mm" /><svg:rect x="2mm" y="13mm" width="0.5mm" height="0.5mm" /><svg:rect x="4.5mm" y="13mm" width="0.5mm" height="0.5mm" /><svg:rect x="5mm" y="13mm" width="0.5mm" height="0.5mm" /><svg:rect x="5.5mm" y="13mm" width="0.5mm" height="0.5mm" /><svg:rect x="6.5mm" y="13mm" width="0.5mm" height="0.5mm" /><svg:rect x="7mm" y="13mm" width="0.5mm" height="0.5mm" /><svg:rect x="8.5mm" y="13mm" width="0.5mm" height="0.5mm" /><svg:rect x="9mm" y="13mm" width="0.5mm" height="0.5mm" /><svg:rect x="9.5mm" y="13mm" width="0.5mm" height="0.5mm" /><svg:rect x="10mm" y="13mm" width="0.5mm" height="0.5mm" /><svg:rect x="13mm" y="13mm" width="0.5mm" height="0.5mm" /><svg:rect x="14mm" y="13mm" width="0.5mm" height="0.5mm" /><svg:rect x="14.5mm" y="13mm" width="0.5mm" height="0.5mm" /><svg:rect x="15mm" y="13mm" width="0.5mm" height="0.5mm" /><svg:rect x="15.5mm" y="13mm" width="0.5mm" height="0.5mm" /><svg:rect x="16.5mm" y="13mm" width="0.5mm" height="0.5mm" /><svg:rect x="19.5mm" y="13mm" width="0.5mm" height="0.5mm" /><svg:rect x="20mm" y="13mm" width="0.5mm" height="0.5mm" /><svg:rect x="3mm" y="13.5mm" width="0.5mm" height="0.5mm" /><svg:rect x="5.5mm" y="13.5mm" width="0.5mm" height="0.5mm" /><svg:rect x="8mm" y="13.5mm" width="0.5mm" height="0.5mm" /><svg:rect x="9mm" y="13.5mm" width="0.5mm" height="0.5mm" /><svg:rect x="9.5mm" y="13.5mm" width="0.5mm" height="0.5mm" /><svg:rect x="11mm" y="13.5mm" width="0.5mm" height="0.5mm" /><svg:rect x="11.5mm" y="13.5mm" width="0.5mm" height="0.5mm" /><svg:rect x="12mm" y="13.5mm" width="0.5mm" height="0.5mm" /><svg:rect x="12.5mm" y="13.5mm" width="0.5mm" height="0.5mm" /><svg:rect x="15.5mm" y="13.5mm" width="0.5mm" height="0.5mm" /><svg:rect x="18mm" y="13.5mm" width="0.5mm" height="0.5mm" /><svg:rect x="18.5mm" y="13.5mm" width="0.5mm" height="0.5mm" /><svg:rect x="20mm" y="13.5mm" width="0.5mm" height="0.5mm" /><svg:rect x="2mm" y="14mm" width="0.5mm" height="0.5mm" /><svg:rect x="3mm" y="14mm" width="0.5mm" height="0.5mm" /><svg:rect x="4mm" y="14mm" width="0.5mm" height="0.5mm" /><svg:rect x="5mm" y="14mm" width="0.5mm" height="0.5mm" /><svg:rect x="6mm" y="14mm" width="0.5mm" height="0.5mm" /><svg:rect x="6.5mm" y="14mm" width="0.5mm" height="0.5mm" /><svg:rect x="7mm" y="14mm" width="0.5mm" height="0.5mm" /><svg:rect x="8mm" y="14mm" width="0.5mm" height="0.5mm" /><svg:rect x="8.5mm" y="14mm" width="0.5mm" height="0.5mm" /><svg:rect x="10.5mm" y="14mm" width="0.5mm" height="0.5mm" /><svg:rect x="11.5mm" y="14mm" width="0.5mm" height="0.5mm" /><svg:rect x="13mm" y="14mm" width="0.5mm" height="0.5mm" /><svg:rect x="13.5mm" y="14mm" width="0.5mm" height="0.5mm" /><svg:rect x="14mm" y="14mm" width="0.5mm" height="0.5mm" /><svg:rect x="14.5mm" y="14mm" width="0.5mm" height="0.5mm" /><svg:rect x="15.5mm" y="14mm" width="0.5mm" height="0.5mm" /><svg:rect x="16.5mm" y="14mm" width="0.5mm" height="0.5mm" /><svg:rect x="17mm" y="14mm" width="0.5mm" height="0.5mm" /><svg:rect x="18mm" y="14mm" width="0.5mm" height="0.5mm" /><svg:rect x="19mm" y="14mm" width="0.5mm" height="0.5mm" /><svg:rect x="20mm" y="14mm" width="0.5mm" height="0.5mm" /><svg:rect x="2mm" y="14.5mm" width="0.5mm" height="0.5mm" /><svg:rect x="3.5mm" y="14.5mm" width="0.5mm" height="0.5mm" /><svg:rect x="4mm" y="14.5mm" width="0.5mm" height="0.5mm" /><svg:rect x="4.5mm" y="14.5mm" width="0.5mm" height="0.5mm" /><svg:rect x="5.5mm" y="14.5mm" width="0.5mm" height="0.5mm" /><svg:rect x="6mm" y="14.5mm" width="0.5mm" height="0.5mm" /><svg:rect x="7mm" y="14.5mm" width="0.5mm" height="0.5mm" /><svg:rect x="9mm" y="14.5mm" width="0.5mm" height="0.5mm" /><svg:rect x="10mm" y="14.5mm" width="0.5mm" height="0.5mm" /><svg:rect x="10.5mm" y="14.5mm" width="0.5mm" height="0.5mm" /><svg:rect x="11mm" y="14.5mm" width="0.5mm" height="0.5mm" /><svg:rect x="11.5mm" y="14.5mm" width="0.5mm" height="0.5mm" /><svg:rect x="12.5mm" y="14.5mm" width="0.5mm" height="0.5mm" /><svg:rect x="13.5mm" y="14.5mm" width="0.5mm" height="0.5mm" /><svg:rect x="14.5mm" y="14.5mm" width="0.5mm" height="0.5mm" /><svg:rect x="15mm" y="14.5mm" width="0.5mm" height="0.5mm" /><svg:rect x="15.5mm" y="14.5mm" width="0.5mm" height="0.5mm" /><svg:rect x="16mm" y="14.5mm" width="0.5mm" height="0.5mm" /><svg:rect x="17.5mm" y="14.5mm" width="0.5mm" height="0.5mm" /><svg:rect x="19mm" y="14.5mm" width="0.5mm" height="0.5mm" /><svg:rect x="19.5mm" y="14.5mm" width="0.5mm" height="0.5mm" /><svg:rect x="2mm" y="15mm" width="0.5mm" height="0.5mm" /><svg:rect x="4mm" y="15mm" width="0.5mm" height="0.5mm" /><svg:rect x="5mm" y="15mm" width="0.5mm" height="0.5mm" /><svg:rect x="6.5mm" y="15mm" width="0.5mm" height="0.5mm" /><svg:rect x="7.5mm" y="15mm" width="0.5mm" height="0.5mm" /><svg:rect x="8mm" y="15mm" width="0.5mm" height="0.5mm" /><svg:rect x="8.5mm" y="15mm" width="0.5mm" height="0.5mm" /><svg:rect x="9mm" y="15mm" width="0.5mm" height="0.5mm" /><svg:rect x="9.5mm" y="15mm" width="0.5mm" height="0.5mm" /><svg:rect x="10mm" y="15mm" width="0.5mm" height="0.5mm" /><svg:rect x="10.5mm" y="15mm" width="0.5mm" height="0.5mm" /><svg:rect x="12mm" y="15mm" width="0.5mm" height="0.5mm" /><svg:rect x="12.5mm" y="15mm" width="0.5mm" height="0.5mm" /><svg:rect x="15mm" y="15mm" width="0.5mm" height="0.5mm" /><svg:rect x="15.5mm" y="15mm" width="0.5mm" height="0.5mm" /><svg:rect x="16mm" y="15mm" width="0.5mm" height="0.5mm" /><svg:rect x="16.5mm" y="15mm" width="0.5mm" height="0.5mm" /><svg:rect x="19mm" y="15mm" width="0.5mm" height="0.5mm" /><svg:rect x="19.5mm" y="15mm" width="0.5mm" height="0.5mm" /><svg:rect x="20mm" y="15mm" width="0.5mm" height="0.5mm" /><svg:rect x="2mm" y="15.5mm" width="0.5mm" height="0.5mm" /><svg:rect x="3.5mm" y="15.5mm" width="0.5mm" height="0.5mm" /><svg:rect x="4mm" y="15.5mm" width="0.5mm" height="0.5mm" /><svg:rect x="6mm" y="15.5mm" width="0.5mm" height="0.5mm" /><svg:rect x="6.5mm" y="15.5mm" width="0.5mm" height="0.5mm" /><svg:rect x="7mm" y="15.5mm" width="0.5mm" height="0.5mm" /><svg:rect x="7.5mm" y="15.5mm" width="0.5mm" height="0.5mm" /><svg:rect x="10mm" y="15.5mm" width="0.5mm" height="0.5mm" /><svg:rect x="11mm" y="15.5mm" width="0.5mm" height="0.5mm" /><svg:rect x="11.5mm" y="15.5mm" width="0.5mm" height="0.5mm" /><svg:rect x="12.5mm" y="15.5mm" width="0.5mm" height="0.5mm" /><svg:rect x="13mm" y="15.5mm" width="0.5mm" height="0.5mm" /><svg:rect x="14mm" y="15.5mm" width="0.5mm" height="0.5mm" /><svg:rect x="15mm" y="15.5mm" width="0.5mm" height="0.5mm" /><svg:rect x="16.5mm" y="15.5mm" width="0.5mm" height="0.5mm" /><svg:rect x="17mm" y="15.5mm" width="0.5mm" height="0.5mm" /><svg:rect x="19.5mm" y="15.5mm" width="0.5mm" height="0.5mm" /><svg:rect x="20mm" y="15.5mm" width="0.5mm" height="0.5mm" /><svg:rect x="2mm" y="16mm" width="0.5mm" height="0.5mm" /><svg:rect x="3.5mm" y="16mm" width="0.5mm" height="0.5mm" /><svg:rect x="4.5mm" y="16mm" width="0.5mm" height="0.5mm" /><svg:rect x="5mm" y="16mm" width="0.5mm" height="0.5mm" /><svg:rect x="6.5mm" y="16mm" width="0.5mm" height="0.5mm" /><svg:rect x="7.5mm" y="16mm" width="0.5mm" height="0.5mm" /><svg:rect x="8mm" y="16mm" width="0.5mm" height="0.5mm" /><svg:rect x="8.5mm" y="16mm" width="0.5mm" height="0.5mm" /><svg:rect x="10.5mm" y="16mm" width="0.5mm" height="0.5mm" /><svg:rect x="11mm" y="16mm" width="0.5mm" height="0.5mm" /><svg:rect x="12mm" y="16mm" width="0.5mm" height="0.5mm" /><svg:rect x="13mm" y="16mm" width="0.5mm" height="0.5mm" /><svg:rect x="14mm" y="16mm" width="0.5mm" height="0.5mm" /><svg:rect x="15mm" y="16mm" width="0.5mm" height="0.5mm" /><svg:rect x="15.5mm" y="16mm" width="0.5mm" height="0.5mm" /><svg:rect x="16mm" y="16mm" width="0.5mm" height="0.5mm" /><svg:rect x="16.5mm" y="16mm" width="0.5mm" height="0.5mm" /><svg:rect x="17mm" y="16mm" width="0.5mm" height="0.5mm" /><svg:rect x="17.5mm" y="16mm" width="0.5mm" height="0.5mm" /><svg:rect x="18mm" y="16mm" width="0.5mm" height="0.5mm" /><svg:rect x="19mm" y="16mm" width="0.5mm" height="0.5mm" /><svg:rect x="19.5mm" y="16mm" width="0.5mm" height="0.5mm" /><svg:rect x="20mm" y="16mm" width="0.5mm" height="0.5mm" /><svg:rect x="6mm" y="16.5mm" width="0.5mm" height="0.5mm" /><svg:rect x="7mm" y="16.5mm" width="0.5mm" height="0.5mm" /><svg:rect x="8mm" y="16.5mm" width="0.5mm" height="0.5mm" /><svg:rect x="8.5mm" y="16.5mm" width="0.5mm" height="0.5mm" /><svg:rect x="9mm" y="16.5mm" width="0.5mm" height="0.5mm" /><svg:rect x="10mm" y="16.5mm" width="0.5mm" height="0.5mm" /><svg:rect x="10.5mm" y="16.5mm" width="0.5mm" height="0.5mm" /><svg:rect x="11.5mm" y="16.5mm" width="0.5mm" height="0.5mm" /><svg:rect x="13.5mm" y="16.5mm" width="0.5mm" height="0.5mm" /><svg:rect x="16mm" y="16.5mm" width="0.5mm" height="0.5mm" /><svg:rect x="18mm" y="16.5mm" width="0.5mm" height="0.5mm" /><svg:rect x="18.5mm" y="16.5mm" width="0.5mm" height="0.5mm" /><svg:rect x="19.5mm" y="16.5mm" width="0.5mm" height="0.5mm" /><svg:rect x="2mm" y="17mm" width="0.5mm" height="0.5mm" /><svg:rect x="2.5mm" y="17mm" width="0.5mm" height="0.5mm" /><svg:rect x="3mm" y="17mm" width="0.5mm" height="0.5mm" /><svg:rect x="3.5mm" y="17mm" width="0.5mm" height="0.5mm" /><svg:rect x="4mm" y="17mm" width="0.5mm" height="0.5mm" /><svg:rect x="4.5mm" y="17mm" width="0.5mm" height="0.5mm" /><svg:rect x="5mm" y="17mm" width="0.5mm" height="0.5mm" /><svg:rect x="6mm" y="17mm" width="0.5mm" height="0.5mm" /><svg:rect x="6.5mm" y="17mm" width="0.5mm" height="0.5mm" /><svg:rect x="7mm" y="17mm" width="0.5mm" height="0.5mm" /><svg:rect x="8mm" y="17mm" width="0.5mm" height="0.5mm" /><svg:rect x="9.5mm" y="17mm" width="0.5mm" height="0.5mm" /><svg:rect x="12mm" y="17mm" width="0.5mm" height="0.5mm" /><svg:rect x="12.5mm" y="17mm" width="0.5mm" height="0.5mm" /><svg:rect x="13mm" y="17mm" width="0.5mm" height="0.5mm" /><svg:rect x="14mm" y="17mm" width="0.5mm" height="0.5mm" /><svg:rect x="14.5mm" y="17mm" width="0.5mm" height="0.5mm" /><svg:rect x="15mm" y="17mm" width="0.5mm" height="0.5mm" /><svg:rect x="16mm" y="17mm" width="0.5mm" height="0.5mm" /><svg:rect x="17mm" y="17mm" width="0.5mm" height="0.5mm" /><svg:rect x="18mm" y="17mm" width="0.5mm" height="0.5mm" /><svg:rect x="18.5mm" y="17mm" width="0.5mm" height="0.5mm" /><svg:rect x="19.5mm" y="17mm" width="0.5mm" height="0.5mm" /><svg:rect x="20mm" y="17mm" width="0.5mm" height="0.5mm" /><svg:rect x="2mm" y="17.5mm" width="0.5mm" height="0.5mm" /><svg:rect x="5mm" y="17.5mm" width="0.5mm" height="0.5mm" /><svg:rect x="7mm" y="17.5mm" width="0.5mm" height="0.5mm" /><svg:rect x="8mm" y="17.5mm" width="0.5mm" height="0.5mm" /><svg:rect x="9mm" y="17.5mm" width="0.5mm" height="0.5mm" /><svg:rect x="10mm" y="17.5mm" width="0.5mm" height="0.5mm" /><svg:rect x="11.5mm" y="17.5mm" width="0.5mm" height="0.5mm" /><svg:rect x="12.5mm" y="17.5mm" width="0.5mm" height="0.5mm" /><svg:rect x="13mm" y="17.5mm" width="0.5mm" height="0.5mm" /><svg:rect x="13.5mm" y="17.5mm" width="0.5mm" height="0.5mm" /><svg:rect x="14mm" y="17.5mm" width="0.5mm" height="0.5mm" /><svg:rect x="15mm" y="17.5mm" width="0.5mm" height="0.5mm" /><svg:rect x="16mm" y="17.5mm" width="0.5mm" height="0.5mm" /><svg:rect x="18mm" y="17.5mm" width="0.5mm" height="0.5mm" /><svg:rect x="19.5mm" y="17.5mm" width="0.5mm" height="0.5mm" /><svg:rect x="20mm" y="17.5mm" width="0.5mm" height="0.5mm" /><svg:rect x="2mm" y="18mm" width="0.5mm" height="0.5mm" /><svg:rect x="3mm" y="18mm" width="0.5mm" height="0.5mm" /><svg:rect x="3.5mm" y="18mm" width="0.5mm" height="0.5mm" /><svg:rect x="4mm" y="18mm" width="0.5mm" height="0.5mm" /><svg:rect x="5mm" y="18mm" width="0.5mm" height="0.5mm" /><svg:rect x="6mm" y="18mm" width="0.5mm" height="0.5mm" /><svg:rect x="6.5mm" y="18mm" width="0.5mm" height="0.5mm" /><svg:rect x="8.5mm" y="18mm" width="0.5mm" height="0.5mm" /><svg:rect x="9.5mm" y="18mm" width="0.5mm" height="0.5mm" /><svg:rect x="10mm" y="18mm" width="0.5mm" height="0.5mm" /><svg:rect x="12mm" y="18mm" width="0.5mm" height="0.5mm" /><svg:rect x="14mm" y="18mm" width="0.5mm" height="0.5mm" /><svg:rect x="14.5mm" y="18mm" width="0.5mm" height="0.5mm" /><svg:rect x="15mm" y="18mm" width="0.5mm" height="0.5mm" /><svg:rect x="15.5mm" y="18mm" width="0.5mm" height="0.5mm" /><svg:rect x="16mm" y="18mm" width="0.5mm" height="0.5mm" /><svg:rect x="16.5mm" y="18mm" width="0.5mm" height="0.5mm" /><svg:rect x="17mm" y="18mm" width="0.5mm" height="0.5mm" /><svg:rect x="17.5mm" y="18mm" width="0.5mm" height="0.5mm" /><svg:rect x="18mm" y="18mm" width="0.5mm" height="0.5mm" /><svg:rect x="18.5mm" y="18mm" width="0.5mm" height="0.5mm" /><svg:rect x="19mm" y="18mm" width="0.5mm" height="0.5mm" /><svg:rect x="20mm" y="18mm" width="0.5mm" height="0.5mm" /><svg:rect x="2mm" y="18.5mm" width="0.5mm" height="0.5mm" /><svg:rect x="3mm" y="18.5mm" width="0.5mm" height="0.5mm" /><svg:rect x="3.5mm" y="18.5mm" width="0.5mm" height="0.5mm" /><svg:rect x="4mm" y="18.5mm" width="0.5mm" height="0.5mm" /><svg:rect x="5mm" y="18.5mm" width="0.5mm" height="0.5mm" /><svg:rect x="6mm" y="18.5mm" width="0.5mm" height="0.5mm" /><svg:rect x="7.5mm" y="18.5mm" width="0.5mm" height="0.5mm" /><svg:rect x="8mm" y="18.5mm" width="0.5mm" height="0.5mm" /><svg:rect x="8.5mm" y="18.5mm" width="0.5mm" height="0.5mm" /><svg:rect x="9mm" y="18.5mm" width="0.5mm" height="0.5mm" /><svg:rect x="10mm" y="18.5mm" width="0.5mm" height="0.5mm" /><svg:rect x="10.5mm" y="18.5mm" width="0.5mm" height="0.5mm" /><svg:rect x="11mm" y="18.5mm" width="0.5mm" height="0.5mm" /><svg:rect x="11.5mm" y="18.5mm" width="0.5mm" height="0.5mm" /><svg:rect x="13mm" y="18.5mm" width="0.5mm" height="0.5mm" /><svg:rect x="13.5mm" y="18.5mm" width="0.5mm" height="0.5mm" /><svg:rect x="14.5mm" y="18.5mm" width="0.5mm" height="0.5mm" /><svg:rect x="15.5mm" y="18.5mm" width="0.5mm" height="0.5mm" /><svg:rect x="16.5mm" y="18.5mm" width="0.5mm" height="0.5mm" /><svg:rect x="17mm" y="18.5mm" width="0.5mm" height="0.5mm" /><svg:rect x="17.5mm" y="18.5mm" width="0.5mm" height="0.5mm" /><svg:rect x="18mm" y="18.5mm" width="0.5mm" height="0.5mm" /><svg:rect x="18.5mm" y="18.5mm" width="0.5mm" height="0.5mm" /><svg:rect x="2mm" y="19mm" width="0.5mm" height="0.5mm" /><svg:rect x="3mm" y="19mm" width="0.5mm" height="0.5mm" /><svg:rect x="3.5mm" y="19mm" width="0.5mm" height="0.5mm" /><svg:rect x="4mm" y="19mm" width="0.5mm" height="0.5mm" /><svg:rect x="5mm" y="19mm" width="0.5mm" height="0.5mm" /><svg:rect x="6mm" y="19mm" width="0.5mm" height="0.5mm" /><svg:rect x="8mm" y="19mm" width="0.5mm" height="0.5mm" /><svg:rect x="9.5mm" y="19mm" width="0.5mm" height="0.5mm" /><svg:rect x="11mm" y="19mm" width="0.5mm" height="0.5mm" /><svg:rect x="12.5mm" y="19mm" width="0.5mm" height="0.5mm" /><svg:rect x="13mm" y="19mm" width="0.5mm" height="0.5mm" /><svg:rect x="15mm" y="19mm" width="0.5mm" height="0.5mm" /><svg:rect x="17.5mm" y="19mm" width="0.5mm" height="0.5mm" /><svg:rect x="19.5mm" y="19mm" width="0.5mm" height="0.5mm" /><svg:rect x="20mm" y="19mm" width="0.5mm" height="0.5mm" /><svg:rect x="2mm" y="19.5mm" width="0.5mm" height="0.5mm" /><svg:rect x="5mm" y="19.5mm" width="0.5mm" height="0.5mm" /><svg:rect x="6mm" y="19.5mm" width="0.5mm" height="0.5mm" /><svg:rect x="6.5mm" y="19.5mm" width="0.5mm" height="0.5mm" /><svg:rect x="8mm" y="19.5mm" width="0.5mm" height="0.5mm" /><svg:rect x="10mm" y="19.5mm" width="0.5mm" height="0.5mm" /><svg:rect x="12mm" y="19.5mm" width="0.5mm" height="0.5mm" /><svg:rect x="12.5mm" y="19.5mm" width="0.5mm" height="0.5mm" /><svg:rect x="13mm" y="19.5mm" width="0.5mm" height="0.5mm" /><svg:rect x="13.5mm" y="19.5mm" width="0.5mm" height="0.5mm" /><svg:rect x="15.5mm" y="19.5mm" width="0.5mm" height="0.5mm" /><svg:rect x="16mm" y="19.5mm" width="0.5mm" height="0.5mm" /><svg:rect x="16.5mm" y="19.5mm" width="0.5mm" height="0.5mm" /><svg:rect x="17mm" y="19.5mm" width="0.5mm" height="0.5mm" /><svg:rect x="17.5mm" y="19.5mm" width="0.5mm" height="0.5mm" /><svg:rect x="18.5mm" y="19.5mm" width="0.5mm" height="0.5mm" /><svg:rect x="20mm" y="19.5mm" width="0.5mm" height="0.5mm" /><svg:rect x="2mm" y="20mm" width="0.5mm" height="0.5mm" /><svg:rect x="2.5mm" y="20mm" width="0.5mm" height="0.5mm" /><svg:rect x="3mm" y="20mm" width="0.5mm" height="0.5mm" /><svg:rect x="3.5mm" y="20mm" width="0.5mm" height="0.5mm" /><svg:rect x="4mm" y="20mm" width="0.5mm" height="0.5mm" /><svg:rect x="4.5mm" y="20mm" width="0.5mm" height="0.5mm" /><svg:rect x="5mm" y="20mm" width="0.5mm" height="0.5mm" /><svg:rect x="6mm" y="20mm" width="0.5mm" height="0.5mm" /><svg:rect x="7mm" y="20mm" width="0.5mm" height="0.5mm" /><svg:rect x="7.5mm" y="20mm" width="0.5mm" height="0.5mm" /><svg:rect x="8.5mm" y="20mm" width="0.5mm" height="0.5mm" /><svg:rect x="10.5mm" y="20mm" width="0.5mm" height="0.5mm" /><svg:rect x="12mm" y="20mm" width="0.5mm" height="0.5mm" /><svg:rect x="13.5mm" y="20mm" width="0.5mm" height="0.5mm" /><svg:rect x="14mm" y="20mm" width="0.5mm" height="0.5mm" /><svg:rect x="14.5mm" y="20mm" width="0.5mm" height="0.5mm" /><svg:rect x="15mm" y="20mm" width="0.5mm" height="0.5mm" /><svg:rect x="16.5mm" y="20mm" width="0.5mm" height="0.5mm" /><svg:rect x="17mm" y="20mm" width="0.5mm" height="0.5mm" /><svg:rect x="17.5mm" y="20mm" width="0.5mm" height="0.5mm" /><svg:rect x="18mm" y="20mm" width="0.5mm" height="0.5mm" /><svg:rect x="19mm" y="20mm" width="0.5mm" height="0.5mm" /><svg:rect x="19.5mm" y="20mm" width="0.5mm" height="0.5mm" /><svg:rect x="20mm" y="20mm" width="0.5mm" height="0.5mm" /></svg>