<svg xmlns:svg="http://www.w3.org/2000/svg" width="24.6mm" height="24.6mm" version="1.1" xmlns="http://www.w3.org/2000/svg"><svg:rect x="2.4mm" y="2.4mm" width="0.6mm" height="0.6mm" /><svg:rect x="3mm" y="2.4mm" width="0.6mm" height="0.6mm" /><svg:rect x="3.6mm" y="2.4mm" width="0.6mm" height="0.6mm" /><svg:rect x="4.2mm" y="2.4mm" width="0.6mm" height="0.6mm" /><svg:rect x="4.8mm" y="2.4mm" width="0.6mm" height="0.6mm" /><svg:rect x="5.4mm" y="2.4mm" width="0.6mm" height="0.6mm" /><svg:rect x="6mm" y="2.4mm" width="0.6mm" height="0.6mm" /><svg:rect x="7.2mm" y="2.4mm" width="0.6mm" height="0.6mm" /><svg:rect x="10.2mm" y="2.4mm" width="0.6mm" height="0.6mm" /><svg:rect x="10.8mm" y="2.4mm" width="0.6mm" height="0.6mm" /><svg:rect x="11.4mm" y="2.4mm" width="0.6mm" height="0.6mm" /><svg:rect x="12mm" y="2.4mm" width="0.6mm" height="0.6mm" /><svg:rect x="14.4mm" y="2.4mm" width="0.6mm" height="0.6mm" /><svg:rect x="15mm" y="2.4mm" width="0.6mm" height="0.6mm" /><svg:rect x="16.2mm" y="2.4mm" width="0.6mm" height="0.6mm" /><svg:rect x="18mm" y="2.4mm" width="0.6mm" height="0.6mm" /><svg:rect x="18.6mm" y="2.4mm" width="0.6mm" height="0.6mm" /><svg:rect x="19.2mm" y="2.4mm" width="0.6mm" height="0.6mm" /><svg:rect x="19.8mm" y="2.4mm" width="0.6mm" height="0.6mm" /><svg:rect x="20.4mm" y="2.4mm" width="0.6mm" height="0.6mm" /><svg:rect x="21mm" y="2.4mm" width="0.6mm" height="0.6mm" /><svg:rect x="21.6mm" y="2.4mm" width="0.6mm" height="0.6mm" /><svg:rect x="2.4mm" y="3mm" width="0.6mm" height="0.6mm" /><svg:rect x="6mm" y="3mm" width="0.6mm" height="0.6mm" /><svg:rect x="7.2mm" y="3mm" width="0.6mm" height="0.6mm" /><svg:rect x="9mm" y="3mm" width="0.6mm" height="0.6mm" /><svg:rect x="9.6mm" y="3mm" width="0.6mm" height="0.6mm" /><svg:rect x="10.2mm" y="3mm" width="0.6mm" height="0.6mm" /><svg:rect x="12mm" y="3mm" width="0.6mm" height="0.6mm" /><svg:rect x="13.2mm" y="3mm" width="0.6mm" height="0.6mm" /><svg:rect x="13.8mm" y="3mm" width="0.6mm" height="0.6mm" /><svg:rect x="14.4mm" y="3mm" width="0.6mm" height="0.6mm" /><svg:rect x="15mm" y="3mm" width="0.6mm" height="0.6mm" /><svg:rect x="15.6mm" y="3mm" width="0.6mm" height="0.6mm" /><svg:rect x="18mm" y="3mm" width="0.6mm" height="0.6mm" /><svg:rect x="21.6mm" y="3mm" width="0.6mm" height="0.6mm" /><svg:rect x="2.4mm" y="3.6mm" width="0.6mm" height="0.6mm" /><svg:rect x="3.6mm" y="3.6mm" width="0.6mm" height="0.6mm" /><svg:rect x="4.2mm" y="3.6mm" width="0.6mm" height="0.6mm" /><svg:rect x="4.8mm" y="3.6mm" width="0.6mm" height="0.6mm" /><svg:rect x="6mm" y="3.6mm" width="0.6mm" height="0.6mm" /><svg:rect x="7.2mm" y="3.6mm" width="0.6mm" height="0.6mm" /><svg:rect x="7.8mm" y="3.6mm" width="0.6mm" height="0.6mm" /><svg:rect x="9.6mm" y="3.6mm" width="0.6mm" height="0.6mm" /><svg:rect x="10.8mm" y="3.6mm" width="0.6mm" height="0.6mm" /><svg:rect x="12mm" y="3.6mm" width="0.6mm" height="0.6mm" /><svg:rect x="12.6mm" y="3.6mm" width="0.6mm" height="0.6mm" /><svg:rect x="13.8mm" y="3.6mm" width="0.6mm" height="0.6mm" /><svg:rect x="15mm" y="3.6mm" width="0.6mm" height="0.6mm" /><svg:rect x="15.6mm" y="3.6mm" width="0.6mm" height="0.6mm" /><svg:rect x="16.2mm" y="3.6mm" width="0.6mm" height="0.6mm" /><svg:rect x="18mm" y="3.6mm" width="0.6mm" height="0.6mm" /><svg:rect x="19.2mm" y="3.6mm" width="0.6mm" height="0.6mm" /><svg:rect x="19.8mm" y="3.6mm" width="0.6mm" height="0.6mm" /><svg:rect x="20.4mm" y="3.6mm" width="0.6mm" height="0.6mm" /><svg:rect x="21.6mm" y="3.6mm" width="0.6mm" height="0.6mm" /><svg:rect x="2.4mm" y="4.2mm" width="0.6mm" height="0.6mm" /><svg:rect x="3.6mm" y="4.2mm" width="0.6mm" height="0.6mm" /><svg:rect x="4.2mm" y="4.2mm" width="0.6mm" height="0.6mm" /><svg:rect x="4.8mm" y="4.2mm" width="0.6mm" height="0.6mm" /><svg:rect x="6mm" y="4.2mm" width="0.6mm" height="0.6mm" /><svg:rect x="7.2mm" y="4.2mm" width="0.6mm" height="0.6mm" /><svg:rect x="7.8mm" y="4.2mm" width="0.6mm" height="0.6mm" /><svg:rect x="8.4mm" y="4.2mm" width="0.6mm" height="0.6mm" /><svg:rect x="9.6mm" y="4.2mm" width="0.6mm" height="0.6mm" /><svg:rect x="10.2mm" y="4.2mm" width="0.6mm" height="0.6mm" /><svg:rect x="11.4mm" y="4.2mm" width="0.6mm" height="0.6mm" /><svg:rect x="12mm" y="4.2mm" width="0.6mm" height="0.6mm" /><svg:rect x="12.6mm" y="4.2mm" width="0.6mm" height="0.6mm" /><svg:rect x="13.2mm" y="4.2mm" width="0.6mm" height="0.6mm" /><svg:rect x="14.4mm" y="4.2mm" width="0.6mm" height="0.6mm" /><svg:rect x="16.2mm" y="4.2mm" width="0.6mm" height="0.6mm" /><svg:rect x="18mm" y="4.2mm" width="0.6mm" height="0.6mm" /><svg:rect x="19.2mm" y="4.2mm" width="0.6mm" height="0.6mm" /><svg:rect x="19.8mm" y="4.2mm" width="0.6mm" height="0.6mm" /><svg:rect x="20.4mm" y="4.2mm" width="0.6mm" height="0.6mm" /><svg:rect x="21.6mm" y="4.2mm" width="0.6mm" height="0.6mm" /><svg:rect x="2.4mm" y="4.8mm" width="0.6mm" height="0.6mm" /><svg:rect x="3.6mm" y="4.8mm" width="0.6mm" height="0.6mm" /><svg:rect x="4.2mm" y="4.8mm" width="0.6mm" height="0.6mm" /><svg:rect x="4.8mm" y="4.8mm" width="0.6mm" height="0.6mm" /><svg:rect x="6mm" y="4.8mm" width="0.6mm" height="0.6mm" /><svg:rect x="7.8mm" y="4.8mm" width="0.6mm" height="0.6mm" /><svg:rect x="8.4mm" y="4.8mm" width="0.6mm" height="0.6mm" /><svg:rect x="9.6mm" y="4.8mm" width="0.6mm" height="0.6mm" /><svg:rect x="10.2mm" y="4.8mm" width="0.6mm" height="0.6mm" /><svg:rect x="10.8mm" y="4.8mm" width="0.6mm" height="0.6mm" /><svg:rect x="11.4mm" y="4.8mm" width="0.6mm" height="0.6mm" /><svg:rect x="12mm" y="4.8mm" width="0.6mm" height="0.6mm" /><svg:rect x="13.2mm" y="4.8mm" width="0.6mm" height="0.6mm" /><svg:rect x="14.4mm" y="4.8mm" width="0.6mm" height="0.6mm" /><svg:rect x="15mm" y="4.8mm" width="0.6mm" height="0.6mm" /><svg:rect x="16.2mm" y="4.8mm" width="0.6mm" height="0.6mm" /><svg:rect x="18mm" y="4.8mm" width="0.6mm" height="0.6mm" /><svg:rect x="19.2mm" y="4.8mm" width="0.6mm" height="0.6mm" /><svg:rect x="19.8mm" y="4.8mm" width="0.6mm" height="0.6mm" /><svg:rect x="20.4mm" y="4.8mm" width="0.6mm" height="0.6mm" /><svg:rect x="21.6mm" y="4.8mm" width="0.6mm" height="0.6mm" /><svg:rect x="2.4mm" y="5.4mm" width="0.6mm" height="0.6mm" /><svg:rect x="6mm" y="5.4mm" width="0.6mm" height="0.6mm" /><svg:rect x="7.2mm" y="5.4mm" width="0.6mm" height="0.6mm" /><svg:rect x="7.8mm" y="5.4mm" width="0.6mm" height="0.6mm" /><svg:rect x="8.4mm" y="5.4mm" width="0.6mm" height="0.6mm" /><svg:rect x="10.2mm" y="5.4mm" width="0.6mm" height="0.6mm" /><svg:rect x="12mm" y="5.4mm" width="0.6mm" height="0.6mm" /><svg:rect x="12.6mm" y="5.4mm" width="0.6mm" height="0.6mm" /><svg:rect x="13.2mm" y="5.4mm" width="0.6mm" height="0.6mm" /><svg:rect x="13.8mm" y="5.4mm" width="0.6mm" height="0.6mm" /><svg:rect x="15mm" y="5.4mm" width="0.6mm" height="0.6mm" /><svg:rect x="16.8mm" y="5.4mm" width="0.6mm" height="0.6mm" /><svg:rect x="18mm" y="5.4mm" width="0.6mm" height="0.6mm" /><svg:rect x="21.6mm" y="5.4mm" width="0.6mm" height="0.6mm" /><svg:rect x="2.4mm" y="6mm" width="0.6mm" height="0.6mm" /><svg:rect x="3mm" y="6mm" width="0.6mm" height="0.6mm" /><svg:rect x="3.6mm" y="6mm" width="0.6mm" height="0.6mm" /><svg:rect x="4.2mm" y="6mm" width="0.6mm" height="0.6mm" /><svg:rect x="4.8mm" y="6mm" width="0.6mm" height="0.6mm" /><svg:rect x="5.4mm" y="6mm" width="0.6mm" height="0.6mm" /><svg:rect x="6mm" y="6mm" width="0.6mm" height="0.6mm" /><svg:rect x="7.2mm" y="6mm" width="0.6mm" height="0.6mm" /><svg:rect x="8.4mm" y="6mm" width="0.6mm" height="0.6mm" /><svg:rect x="9.6mm" y="6mm" width="0.6mm" height="0.6mm" /><svg:rect x="10.8mm" y="6mm" width="0.6mm" height="0.6mm" /><svg:rect x="12mm" y="6mm" width="0.6mm" height="0.6mm" /><svg:rect x="13.2mm" y="6mm" width="0.6mm" height="0.6mm" /><svg:rect x="14.4mm" y="6mm" width="0.6mm" height="0.6mm" /><svg:rect x="15.6mm" y="6mm" width="0.6mm" height="0.6mm" /><svg:rect x="16.8mm" y="6mm" width="0.6mm" height="0.6mm" /><svg:rect x="18mm" y="6mm" width="0.6mm" height="0.6mm" /><svg:rect x="18.6mm" y="6mm" width="0.6mm" height="0.6mm" /><svg:rect x="19.2mm" y="6mm" width="0.6mm" height="0.6mm" /><svg:rect x="19.8mm" y="6mm" width="0.6mm" height="0.6mm" /><svg:rect x="20.4mm" y="6mm" width="0.6mm" height="0.6mm" /><svg:rect x="21mm" y="6mm" width="0.6mm" height="0.6mm" /><svg:rect x="21.6mm" y="6mm" width="0.6mm" height="0.6mm" /><svg:rect x="8.4mm" y="6.6mm" width="0.6mm" height="0.6mm" /><svg:rect x="9mm" y="6.6mm" width="0.6mm" height="0.6mm" /><svg:rect x="10.8mm" y="6.6mm" width="0.6mm" height="0.6mm" /><svg:rect x="11.4mm" y="6.6mm" width="0.6mm" height="0.6mm" /><svg:rect x="12mm" y="6.6mm" width="0.6mm" height="0.6mm" /><svg:rect x="12.6mm" y="6.6mm" width="0.6mm" height="0.6mm" /><svg:rect x="14.4mm" y="6.6mm" width="0.6mm" height="0.6mm" /><svg:rect x="15mm" y="6.6mm" width="0.6mm" height="0.6mm" /><svg:rect x="2.4mm" y="7.2mm" width="0.6mm" height="0.6mm" /><svg:rect x="3mm" y="7.2mm" width="0.6mm" height="0.6mm" /><svg:rect x="4.8mm" y="7.2mm" width="0.6mm" height="0.6mm" /><svg:rect x="5.4mm" y="7.2mm" width="0.6mm" height="0.6mm" /><svg:rect x="6mm" y="7.2mm" width="0.6mm" height="0.6mm" /><svg:rect x="8.4mm" y="7.2mm" width="0.6mm" height="0.6mm" /><svg:rect x="9.6mm" y="7.2mm" width="0.6mm" height="0.6mm" /><svg:rect x="10.8mm" y="7.2mm" width="0.6mm" height="0.6mm" /><svg:rect x="11.4mm" y="7.2mm" width="0.6mm" height="0.6mm" /><svg:rect x="12.6mm" y="7.2mm" width="0.6mm" height="0.6mm" /><svg:rect x="13.8mm" y="7.2mm" width="0.6mm" height="0.6mm" /><svg:rect x="14.4mm" y="7.2mm" width="0.6mm" height="0.6mm" /><svg:rect x="15mm" y="7.2mm" width="0.6mm" height="0.6mm" /><svg:rect x="15.6mm" y="7.2mm" width="0.6mm" height="0.6mm" /><svg:rect x="16.8mm" y="7.2mm" width="0.6mm" height="0.6mm" /><svg:rect x="18.6mm" y="7.2mm" width="0.6mm" height="0.6mm" /><svg:rect x="19.8mm" y="7.2mm" width="0.6mm" height="0.6mm" /><svg:rect x="20.4mm" y="7.2mm" width="0.6mm" height="0.6mm" /><svg:rect x="21mm" y="7.2mm" width="0.6mm" height="0.6mm" /><svg:rect x="21.6mm" y="7.2mm" width="0.6mm" height="0.6mm" /><svg:rect x="2.4mm" y="7.8mm" width="0.6mm" height="0.6mm" /><svg:rect x="4.8mm" y="7.8mm" width="0.6mm" height="0.6mm" /><svg:rect x="7.2mm" y="7.8mm" width="0.6mm" height="0.6mm" /><svg:rect x="10.2mm" y="7.8mm" width="0.6mm" height="0.6mm" /><svg:rect x="11.4mm" y="7.8mm" width="0.6mm" height="0.6mm" /><svg:rect x="12mm" y="7.8mm" width="0.6mm" height="0.6mm" /><svg:rect x="12.6mm" y="7.8mm" width="0.6mm" height="0.6mm" /><svg:rect x="13.2mm" y="7.8mm" width="0.6mm" height="0.6mm" /><svg:rect x="14.4mm" y="7.8mm" width="0.6mm" height="0.6mm" /><svg:rect x="15.6mm" y="7.8mm" width="0.6mm" height="0.6mm" /><svg:rect x="16.2mm" y="7.8mm" width="0.6mm" height="0.6mm" /><svg:rect x="18.6mm" y="7.8mm" width="0.6mm" height="0.6mm" /><svg:rect x="19.8mm" y="7.8mm" width="0.6mm" height="0.6mm" /><svg:rect x="21mm" y="7.8mm" width="0.6mm" height="0.6mm" /><svg:rect x="4.2mm" y="8.4mm" width="0.6mm" height="0.6mm" /><svg:rect x="6mm" y="8.4mm" width="0.6mm" height="0.6mm" /><svg:rect x="7.8mm" y="8.4mm" width="0.6mm" height="0.6mm" /><svg:rect x="8.4mm" y="8.4mm" width="0.6mm" height="0.6mm" /><svg:rect x="10.2mm" y="8.4mm" width="0.6mm" height="0.6mm" /><svg:rect x="11.4mm" y="8.4mm" width="0.6mm" height="0.6mm" /><svg:rect x="12mm" y="8.4mm" width="0.6mm" height="0.6mm" /><svg:rect x="13.2mm" y="8.4mm" width="0.6mm" height="0.6mm" /><svg:rect x="15mm" y="8.4mm" width="0.6mm" height="0.6mm" /><svg:rect x="16.2mm" y="8.4mm" width="0.6mm" height="0.6mm" /><svg:rect x="19.2mm" y="8.4mm" width="0.6mm" height="0.6mm" /><svg:rect x="20.4mm" y="8.4mm" width="0.6mm" height="0.6mm" /><svg:rect x="2.4mm" y="9mm" width="0.6mm" height="0.6mm" /><svg:rect x="4.8mm" y="9mm" width="0.6mm" height="0.6mm" /><svg:rect x="5.4mm" y="9mm" width="0.6mm" height="0.6mm" /><svg:rect x="7.2mm" y="9mm" width="0.6mm" height="0.6mm" /><svg:rect x="7.8mm" y="9mm" width="0.6mm" height="0.6mm" /><svg:rect x="9.6mm" y="9mm" width="0.6mm" height="0.6mm" /><svg:rect x="12.6mm" y="9mm" width="0.6mm" height="0.6mm" /><svg:rect x="13.2mm" y="9mm" width="0.6mm" height="0.6mm" /><svg:rect x="14.4mm" y="9mm" width="0.6mm" height="0.6mm" /><svg:rect x="15mm" y="9mm" width="0.6mm" height="0.6mm" /><svg:rect x="16.2mm" y="9mm" width="0.6mm" height="0.6mm" /><svg:rect x="18mm" y="9mm" width="0.6mm" height="0.6mm" /><svg:rect x="19.2mm" y="9mm" width="0.6mm" height="0.6mm" /><svg:rect x="19.8mm" y="9mm" width="0.6mm" height="0.6mm" /><svg:rect x="21.6mm" y="9mm" width="0.6mm" height="0.6mm" /><svg:rect x="2.4mm" y="9.6mm" width="0.6mm" height="0.6mm" /><svg:rect x="4.8mm" y="9.6mm" width="0.6mm" height="0.6mm" /><svg:rect x="6mm" y="9.6mm" width="0.6mm" height="0.6mm" /><svg:rect x="7.2mm" y="9.6mm" width="0.6mm" height="0.6mm" /><svg:rect x="9mm" y="9.6mm" width="0.6mm" height="0.6mm" /><svg:rect x="10.8mm" y="9.6mm" width="0.6mm" height="0.6mm" /><svg:rect x="12mm" y="9.6mm" width="0.6mm" height="0.6mm" /><svg:rect x="12.6mm" y="9.6mm" width="0.6mm" height="0.6mm" /><svg:rect x="14.4mm" y="9.6mm" width="0.6mm" height="0.6mm" /><svg:rect x="15mm" y="9.6mm" width="0.6mm" height="0.6mm" /><svg:rect x="15.6mm" y="9.6mm" width="0.6mm" height="0.6mm" /><svg:rect x="16.8mm" y="9.6mm" width="0.6mm" height="0.6mm" /><svg:rect x="18mm" y="9.6mm" width="0.6mm" height="0.6mm" /><svg:rect x="19.2mm" y="9.6mm" width="0.6mm" height="0.6mm" /><svg:rect x="21mm" y="9.6mm" width="0.6mm" height="0.6mm" /><svg:rect x="2.4mm" y="10.2mm" width="0.6mm" height="0.6mm" /><svg:rect x="3.6mm" y="10.2mm" width="0.6mm" height="0.6mm" /><svg:rect x="4.2mm" y="10.2mm" width="0.6mm" height="0.6mm" /><svg:rect x="4.8mm" y="10.2mm" width="0.6mm" height="0.6mm" /><svg:rect x="6.6mm" y="10.2mm" width="0.6mm" height="0.6mm" /><svg:rect x="7.2mm" y="10.2mm" width="0.6mm" height="0.6mm" /><svg:rect x="8.4mm" y="10.2mm" width="0.6mm" height="0.6mm" /><svg:rect x="9.6mm" y="10.2mm" width="0.6mm" height="0.6mm" /><svg:rect x="10.2mm" y="10.2mm" width="0.6mm" height="0.6mm" /><svg:rect x="11.4mm" y="10.2mm" width="0.6mm" height="0.6mm" /><svg:rect x="12mm" y="10.2mm" width="0.6mm" height="0.6mm" /><svg:rect x="12.6mm" y="10.2mm" width="0.6mm" height="0.6mm" /><svg:rect x="13.2mm" y="10.2mm" width="0.6mm" height="0.6mm" /><svg:rect x="15.6mm" y="10.2mm" width="0.6mm" height="0.6mm" /><svg:rect x="17.4mm" y="10.2mm" width="0.6mm" height="0.6mm" /><svg:rect x="18.6mm" y="10.2mm" width="0.6mm" height="0.6mm" /><svg:rect x="19.8mm" y="10.2mm" width="0.6mm" height="0.6mm" /><svg:rect x="3mm" y="10.8mm" width="0.6mm" height="0.6mm" /><svg:rect x="4.8mm" y="10.8mm" width="0.6mm" height="0.6mm" /><svg:rect x="6mm" y="10.8mm" width="0.6mm" height="0.6mm" /><svg:rect x="6.6mm" y="10.8mm" width="0.6mm" height="0.6mm" /><svg:rect x="7.2mm" y="10.8mm" width="0.6mm" height="0.6mm" /><svg:rect x="8.4mm" y="10.8mm" width="0.6mm" height="0.6mm" /><svg:rect x="9mm" y="10.8mm" width="0.6mm" height="0.6mm" /><svg:rect x="9.6mm" y="10.8mm" width="0.6mm" height="0.6mm" /><svg:rect x="11.4mm" y="10.8mm" width="0.6mm" height="0.6mm" /><svg:rect x="12mm" y="10.8mm" width="0.6mm" height="0.6mm" /><svg:rect x="13.2mm" y="10.8mm" width="0.6mm" height="0.6mm" /><svg:rect x="14.4mm" y="10.8mm" width="0.6mm" height="0.6mm" /><svg:rect x="15mm" y="10.8mm" width="0.6mm" height="0.6mm" /><svg:rect x="15.6mm" y="10.8mm" width="0.6mm" height="0.6mm" /><svg:rect x="16.2mm" y="10.8mm" width="0.6mm" height="0.6mm" /><svg:rect x="16.8mm" y="10.8mm" width="0.6mm" height="0.6mm" /><svg:rect x="19.2mm" y="10.8mm" width="0.6mm" height="0.6mm" /><svg:rect x="20.4mm" y="10.8mm" width="0.6mm" height="0.6mm" /><svg:rect x="2.4mm" y="11.4mm" width="0.6mm" height="0.6mm" /><svg:rect x="3mm" y="11.4mm" width="0.6mm" height="0.6mm" /><svg:rect x="3.6mm" y="11.4mm" width="0.6mm" height="0.6mm" /><svg:rect x="8.4mm" y="11.4mm" width="0.6mm" height="0.6mm" /><svg:rect x="9mm" y="11.4mm" width="0.6mm" height="0.6mm" /><svg:rect x="12mm" y="11.4mm" width="0.6mm" height="0.6mm" /><svg:rect x="12.6mm" y="11.4mm" width="0.6mm" height="0.6mm" /><svg:rect x="13.2mm" y="11.4mm" width="0.6mm" height="0.6mm" /><svg:rect x="15mm" y="11.4mm" width="0.6mm" height="0.6mm" /><svg:rect x="15.6mm" y="11.4mm" width="0.6mm" height="0.6mm" /><svg:rect x="17.4mm" y="11.4mm" width="0.6mm" height="0.6mm" /><svg:rect x="18mm" y="11.4mm" width="0.6mm" height="0.6mm" /><svg:rect x="21mm" y="11.4mm" width="0.6mm" height="0.6mm" /><svg:rect x="3mm" y="12mm" width="0.6mm" height="0.6mm" /><svg:rect x="4.2mm" y="12mm" width="0.6mm" height="0.6mm" /><svg:rect x="4.8mm" y="12mm" width="0.6mm" height="0.6mm" /><svg:rect x="6mm" y="12mm" width="0.6mm" height="0.6mm" /><svg:rect x="7.2mm" y="12mm" width="0.6mm" height="0.6mm" /><svg:rect x="9.6mm" y="12mm" width="0.6mm" height="0.6mm" /><svg:rect x="10.2mm" y="12mm" width="0.6mm" height="0.6mm" /><svg:rect x="12mm" y="12mm" width="0.6mm" height="0.6mm" /><svg:rect x="12.6mm" y="12mm" width="0.6mm" height="0.6mm" /><svg:rect x="13.8mm" y="12mm" width="0.6mm" height="0.6mm" /><svg:rect x="14.4mm" y="12mm" width="0.6mm" height="0.6mm" /><svg:rect x="15mm" y="12mm" width="0.6mm" height="0.6mm" /><svg:rect x="15.6mm" y="12mm" width="0.6mm" height="0.6mm" /><svg:rect x="18mm" y="12mm" width="0.6mm" height="0.6mm" /><svg:rect x="19.2mm" y="12mm" width="0.6mm" height="0.6mm" /><svg:rect x="19.8mm" y="12mm" width="0.6mm" height="0.6mm" /><svg:rect x="21mm" y="12mm" width="0.6mm" height="0.6mm" /><svg:rect x="2.4mm" y="12.6mm" width="0.6mm" height="0.6mm" /><svg:rect x="4.2mm" y="12.6mm" width="0.6mm" height="0.6mm" /><svg:rect x="8.4mm" y="12.6mm" width="0.6mm" height="0.6mm" /><svg:rect x="10.2mm" y="12.6mm" width="0.6mm" height="0.6mm" /><svg:rect x="10.8mm" y="12.6mm" width="0.6mm" height="0.6mm" /><svg:rect x="11.4mm" y="12.6mm" width="0.6mm" height="0.6mm" /><svg:rect x="12mm" y="12.6mm" width="0.6mm" height="0.6mm" /><svg:rect x="12.6mm" y="12.6mm" width="0.6mm" height="0.6mm" /><svg:rect x="13.2mm" y="12.6mm" width="0.6mm" height="0.6mm" /><svg:rect x="15mm" y="12.6mm" width="0.6mm" height="0.6mm" /><svg:rect x="16.2mm" y="12.6mm" width="0.6mm" height="0.6mm" /><svg:rect x="16.8mm" y="12.6mm" width="0.6mm" height="0.6mm" /><svg:rect x="17.4mm" y="12.6mm" width="0.6mm" height="0.6mm" /><svg:rect x="18.6mm" y="12.6mm" width="0.6mm" height="0.6mm" /><svg:rect x="20.4mm" y="12.6mm" width="0.6mm" height="0.6mm" /><svg:rect x="21mm" y="12.6mm" width="0.6mm" height="0.6mm" /><svg:rect x="3mm" y="13.2mm" width="0.6mm" height="0.6mm" /><svg:rect x="4.2mm" y="13.2mm" width="0.6mm" height="0.6mm" /><svg:rect x="5.4mm" y="13.2mm" width="0.6mm" height="0.6mm" /><svg:rect x="6mm" y="13.2mm" width="0.6mm" height="0.6mm" /><svg:rect x="6.6mm" y="13.2mm" width="0.6mm" height="0.6mm" /><svg:rect x="7.2mm" y="13.2mm" width="0.6mm" height="0.6mm" /><svg:rect x="7.8mm" y="13.2mm" width="0.6mm" height="0.6mm" /><svg:rect x="8.4mm" y="13.2mm" width="0.6mm" height="0.6mm" /><svg:rect x="10.2mm" y="13.2mm" width="0.6mm" height="0.6mm" /><svg:rect x="10.8mm" y="13.2mm" width="0.6mm" height="0.6mm" /><svg:rect x="11.4mm" y="13.2mm" width="0.6mm" height="0.6mm" /><svg:rect x="14.4mm" y="13.2mm" width="0.6mm" height="0.6mm" /><svg:rect x="15mm" y="13.2mm" width="0.6mm" height="0.6mm" /><svg:rect x="15.6mm" y="13.2mm" width="0.6mm" height="0.6mm" /><svg:rect x="16.2mm" y="13.2mm" width="0.6mm" height="0.6mm" /><svg:rect x="18mm" y="13.2mm" width="0.6mm" height="0.6mm" /><svg:rect x="19.2mm" y="13.2mm" width="0.6mm" height="0.6mm" /><svg:rect x="19.8mm" y="13.2mm" width="0.6mm" height="0.6mm" /><svg:rect x="21mm" y="13.2mm" width="0.6mm" height="0.6mm" /><svg:rect x="2.4mm" y="13.8mm" width="0.6mm" height="0.6mm" /><svg:rect x="4.8mm" y="13.8mm" width="0.6mm" height="0.6mm" /><svg:rect x="5.4mm" y="13.8mm" width="0.6mm" height="0.6mm" /><svg:rect x="6.6mm" y="13.8mm" width="0.6mm" height="0.6mm" /><svg:rect x="7.2mm" y="13.8mm" width="0.6mm" height="0.6mm" /><svg:rect x="9.6mm" y="13.8mm" width="0.6mm" height="0.6mm" /><svg:rect x="11.4mm" y="13.8mm" width="0.6mm" height="0.6mm" /><svg:rect x="12.6mm" y="13.8mm" width="0.6mm" height="0.6mm" /><svg:rect x="13.2mm" y="13.8mm" width="0.6mm" height="0.6mm" /><svg:rect x="14.4mm" y="13.8mm" width="0.6mm" height="0.6mm" /><svg:rect x="15mm" y="13.8mm" width="0.6mm" height="0.6mm" /><svg:rect x="3mm" y="14.4mm" width="0.6mm" height="0.6mm" /><svg:rect x="3.6mm" y="14.4mm" width="0.6mm" height="0.6mm" /><svg:rect x="6mm" y="14.4mm" width="0.6mm" height="0.6mm" /><svg:rect x="6.6mm" y="14.4mm" width="0.6mm" height="0.6mm" /><svg:rect x="7.8mm" y="14.4mm" width="0.6mm" height="0.6mm" /><svg:rect x="8.4mm" y="14.4mm" width="0.6mm" height="0.6mm" /><svg:rect x="9mm" y="14.4mm" width="0.6mm" height="0.6mm" /><svg:rect x="12.6mm" y="14.4mm" width="0.6mm" height="0.6mm" /><svg:rect x="13.8mm" y="14.4mm" width="0.6mm" height="0.6mm" /><svg:rect x="14.4mm" y="14.4mm" width="0.6mm" height="0.6mm" /><svg:rect x="15mm" y="14.4mm" width="0.6mm" height="0.6mm" /><svg:rect x="18mm" y="14.4mm" width="0.6mm" height="0.6mm" /><svg:rect x="18.6mm" y="14.4mm" width="0.6mm" height="0.6mm" /><svg:rect x="19.2mm" y="14.4mm" width="0.6mm" height="0.6mm" /><svg:rect x="21mm" y="14.4mm" width="0.6mm" height="0.6mm" /><svg:rect x="21.6mm" y="14.4mm" width="0.6mm" height="0.6mm" /><svg:rect x="2.4mm" y="15mm" width="0.6mm" height="0.6mm" /><svg:rect x="4.8mm" y="15mm" width="0.6mm" height="0.6mm" /><svg:rect x="7.2mm" y="15mm" width="0.6mm" height="0.6mm" /><svg:rect x="9.6mm" y="15mm" width="0.6mm" height="0.6mm" /><svg:rect x="10.2mm" y="15mm" width="0.6mm" height="0.6mm" /><svg:rect x="10.8mm" y="15mm" width="0.6mm" height="0.6mm" /><svg:rect x="11.4mm" y="15mm" width="0.6mm" height="0.6mm" /><svg:rect x="12mm" y="15mm" width="0.6mm" height="0.6mm" /><svg:rect x="16.2mm" y="15mm" width="0.6mm" height="0.6mm" /><svg:rect x="16.8mm" y="15mm" width="0.6mm" height="0.6mm" /><svg:rect x="17.4mm" y="15mm" width="0.6mm" height="0.6mm" /><svg:rect x="20.4mm" y="15mm" width="0.6mm" height="0.6mm" /><svg:rect x="4.8mm" y="15.6mm" width="0.6mm" height="0.6mm" /><svg:rect x="6mm" y="15.6mm" width="0.6mm" height="0.6mm" /><svg:rect x="6.6mm" y="15.6mm" width="0.6mm" height="0.6mm" /><svg:rect x="7.2mm" y="15.6mm" width="0.6mm" height="0.6mm" /><svg:rect x="9mm" y="15.6mm" width="0.6mm" height="0.6mm" /><svg:rect x="9.6mm" y="15.6mm" width="0.6mm" height="0.6mm" /><svg:rect x="10.8mm" y="15.6mm" width="0.6mm" height="0.6mm" /><svg:rect x="11.4mm" y="15.6mm" width="0.6mm" height="0.6mm" /><svg:rect x="16.2mm" y="15.6mm" width="0.6mm" height="0.6mm" /><svg:rect x="16.8mm" y="15.6mm" width="0.6mm" height="0.6mm" /><svg:rect x="19.2mm" y="15.6mm" width="0.6mm" height="0.6mm" /><svg:rect x="21mm" y="15.6mm" width="0.6mm" height="0.6mm" /><svg:rect x="3.6mm" y="16.2mm" width="0.6mm" height="0.6mm" /><svg:rect x="4.8mm" y="16.2mm" width="0.6mm" height="0.6mm" /><svg:rect x="5.4mm" y="16.2mm" width="0.6mm" height="0.6mm" /><svg:rect x="7.2mm" y="16.2mm" width="0.6mm" height="0.6mm" /><svg:rect x="9mm" y="16.2mm" width="0.6mm" height="0.6mm" /><svg:rect x="10.8mm" y="16.2mm" width="0.6mm" height="0.6mm" /><svg:rect x="12mm" y="16.2mm" width="0.6mm" height="0.6mm" /><svg:rect x="12.6mm" y="16.2mm" width="0.6mm" height="0.6mm" /><svg:rect x="13.2mm" y="16.2mm" width="0.6mm" height="0.6mm" /><svg:rect x="14.4mm" y="16.2mm" width="0.6mm" height="0.6mm" /><svg:rect x="15mm" y="16.2mm" width="0.6mm" height="0.6mm" /><svg:rect x="15.6mm" y="16.2mm" width="0.6mm" height="0.6mm" /><svg:rect x="16.2mm" y="16.2mm" width="0.6mm" height="0.6mm" /><svg:rect x="17.4mm" y="16.2mm" width="0.6mm" height="0.6mm" /><svg:rect x="18.6mm" y="16.2mm" width="0.6mm" height="0.6mm" /><svg:rect x="19.2mm" y="16.2mm" width="0.6mm" height="0.6mm" /><svg:rect x="21mm" y="16.2mm" width="0.6mm" height="0.6mm" /><svg:rect x="2.4mm" y="16.8mm" width="0.6mm" height="0.6mm" /><svg:rect x="3mm" y="16.8mm" width="0.6mm" height="0.6mm" /><svg:rect x="3.6mm" y="16.8mm" width="0.6mm" height="0.6mm" /><svg:rect x="6mm" y="16.8mm" width="0.6mm" height="0.6mm" /><svg:rect x="7.2mm" y="16.8mm" width="0.6mm" height="0.6mm" /><svg:rect x="7.8mm" y="16.8mm" width="0.6mm" height="0.6mm" /><svg:rect x="8.4mm" y="16.8mm" width="0.6mm" height="0.6mm" /><svg:rect x="9.6mm" y="16.8mm" width="0.6mm" height="0.6mm" /><svg:rect x="12mm" y="16.8mm" width="0.6mm" height="0.6mm" /><svg:rect x="12.6mm" y="16.8mm" width="0.6mm" height="0.6mm" /><svg:rect x="13.2mm" y="16.8mm" width="0.6mm" height="0.6mm" /><svg:rect x="13.8mm" y="16.8mm" width="0.6mm" height="0.6mm" /><svg:rect x="14.4mm" y="16.8mm" width="0.6mm" height="0.6mm" /><svg:rect x="15mm" y="16.8mm" width="0.6mm" height="0.6mm" /><svg:rect x="15.6mm" y="16.8mm" width="0.6mm" height="0.6mm" /><svg:rect x="16.8mm" y="16.8mm" width="0.6mm" height="0.6mm" /><svg:rect x="17.4mm" y="16.8mm" width="0.6mm" height="0.6mm" /><svg:rect x="18mm" y="16.8mm" width="0.6mm" height="0.6mm" /><svg:rect x="18.6mm" y="16.8mm" width="0.6mm" height="0.6mm" /><svg:rect x="19.2mm" y="16.8mm" width="0.6mm" height="0.6mm" /><svg:rect x="19.8mm" y="16.8mm" width="0.6mm" height="0.6mm" /><svg:rect x="21.6mm" y="16.8mm" width="0.6mm" height="0.6mm" /><svg:rect x="7.2mm" y="17.4mm" width="0.6mm" height="0.6mm" /><svg:rect x="7.8mm" y="17.4mm" width="0.6mm" height="0.6mm" /><svg:rect x="10.2mm" y="17.4mm" width="0.6mm" height="0.6mm" /><svg:rect x="10.8mm" y="17.4mm" width="0.6mm" height="0.6mm" /><svg:rect x="12mm" y="17.4mm" width="0.6mm" height="0.6mm" /><svg:rect x="13.2mm" y="17.4mm" width="0.6mm" height="0.6mm" /><svg:rect x="15.6mm" y="17.4mm" width="0.6mm" height="0.6mm" /><svg:rect x="16.2mm" y="17.4mm" width="0.6mm" height="0.6mm" /><svg:rect x="16.8mm" y="17.4mm" width="0.6mm" height="0.6mm" /><svg:rect x="19.2mm" y="17.4mm" width="0.6mm" height="0.6mm" /><svg:rect x="2.4mm" y="18mm" width="0.6mm" height="0.6mm" /><svg:rect x="3mm" y="18mm" width="0.6mm" height="0.6mm" /><svg:rect x="3.6mm" y="18mm" width="0.6mm" height="0.6mm" /><svg:rect x="4.2mm" y="18mm" width="0.6mm" height="0.6mm" /><svg:rect x="4.8mm" y="18mm" width="0.6mm" height="0.6mm" /><svg:rect x="5.4mm" y="18mm" width="0.6mm" height="0.6mm" /><svg:rect x="6mm" y="18mm" width="0.6mm" height="0.6mm" /><svg:rect x="10.8mm" y="18mm" width="0.6mm" height="0.6mm" /><svg:rect x="11.4mm" y="18mm" width="0.6mm" height="0.6mm" /><svg:rect x="13.2mm" y="18mm" width="0.6mm" height="0.6mm" /><svg:rect x="14.4mm" y="18mm" width="0.6mm" height="0.6mm" /><svg:rect x="15mm" y="18mm" width="0.6mm" height="0.6mm" /><svg:rect x="15.6mm" y="18mm" width="0.6mm" height="0.6mm" /><svg:rect x="16.8mm" y="18mm" width="0.6mm" height="0.6mm" /><svg:rect x="18mm" y="18mm" width="0.6mm" height="0.6mm" /><svg:rect x="19.2mm" y="18mm" width="0.6mm" height="0.6mm" /><svg:rect x="21mm" y="18mm" width="0.6mm" height="0.6mm" /><svg:rect x="2.4mm" y="18.6mm" width="0.6mm" height="0.6mm" /><svg:rect x="6mm" y="18.6mm" width="0.6mm" height="0.6mm" /><svg:rect x="7.2mm" y="18.6mm" width="0.6mm" height="0.6mm" /><svg:rect x="8.4mm" y="18.6mm" width="0.6mm" height="0.6mm" /><svg:rect x="9.6mm" y="18.6mm" width="0.6mm" height="0.6mm" /><svg:rect x="10.8mm" y="18.6mm" width="0.6mm" height="0.6mm" /><svg:rect x="11.4mm" y="18.6mm" width="0.6mm" height="0.6mm" /><svg:rect x="12.6mm" y="18.6mm" width="0.6mm" height="0.6mm" /><svg:rect x="15mm" y="18.6mm" width="0.6mm" height="0.6mm" /><svg:rect x="15.6mm" y="18.6mm" width="0.6mm" height="0.6mm" /><svg:rect x="16.2mm" y="18.6mm" width="0.6mm" height="0.6mm" /><svg:rect x="16.8mm" y="18.6mm" width="0.6mm" height="0.6mm" /><svg:rect x="19.2mm" y="18.6mm" width="0.6mm" height="0.6mm" /><svg:rect x="19.8mm" y="18.6mm" width="0.6mm" height="0.6mm" /><svg:rect x="21.6mm" y="18.6mm" width="0.6mm" height="0.6mm" /><svg:rect x="2.4mm" y="19.2mm" width="0.6mm" height="0.6mm" /><svg:rect x="3.6mm" y="19.2mm" width="0.6mm" height="0.6mm" /><svg:rect x="4.2mm" y="19.2mm" width="0.6mm" height="0.6mm" /><svg:rect x="4.8mm" y="19.2mm" width="0.6mm" height="0.6mm" /><svg:rect x="6mm" y="19.2mm" width="0.6mm" height="0.6mm" /><svg:rect x="7.2mm" y="19.2mm" width="0.6mm" height="0.6mm" /><svg:rect x="8.4mm" y="19.2mm" width="0.6mm" height="0.6mm" /><svg:rect x="9mm" y="19.2mm" width="0.6mm" height="0.6mm" /><svg:rect x="10.2mm" y="19.2mm" width="0.6mm" height="0.6mm" /><svg:rect x="10.8mm" y="19.2mm" width="0.6mm" height="0.6mm" /><svg:rect x="11.4mm" y="19.2mm" width="0.6mm" height="0.6mm" /><svg:rect x="12mm" y="19.2mm" width="0.6mm" height="0.6mm" /><svg:rect x="12.6mm" y="19.2mm" width="0.6mm" height="0.6mm" /><svg:rect x="14.4mm" y="19.2mm" width="0.6mm" height="0.6mm" /><svg:rect x="15mm" y="19.2mm" width="0.6mm" height="0.6mm" /><svg:rect x="15.6mm" y="19.2mm" width="0.6mm" height="0.6mm" /><svg:rect x="16.8mm" y="19.2mm" width="0.6mm" height="0.6mm" /><svg:rect x="17.4mm" y="19.2mm" width="0.6mm" height="0.6mm" /><svg:rect x="18mm" y="19.2mm" width="0.6mm" height="0.6mm" /><svg:rect x="18.6mm" y="19.2mm" width="0.6mm" height="0.6mm" /><svg:rect x="19.2mm" y="19.2mm" width="0.6mm" height="0.6mm" /><svg:rect x="19.8mm" y="19.2mm" width="0.6mm" height="0.6mm" /><svg:rect x="21mm" y="19.2mm" width="0.6mm" height="0.6mm" /><svg:rect x="21.6mm" y="19.2mm" width="0.6mm" height="0.6mm" /><svg:rect x="2.4mm" y="19.8mm" width="0.6mm" height="0.6mm" /><svg:rect x="3.6mm" y="19.8mm" width="0.6mm" height="0.6mm" /><svg:rect x="4.2mm" y="19.8mm" width="0.6mm" height="0.6mm" /><svg:rect x="4.8mm" y="19.8mm" width="0.6mm" height="0.6mm" /><svg:rect x="6mm" y="19.8mm" width="0.6mm" height="0.6mm" /><svg:rect x="9.6mm" y="19.8mm" width="0.6mm" height="0.6mm" /><svg:rect x="10.8mm" y="19.8mm" width="0.6mm" height="0.6mm" /><svg:rect x="11.4mm" y="19.8mm" width="0.6mm" height="0.6mm" /><svg:rect x="13.8mm" y="19.8mm" width="0.6mm" height="0.6mm" /><svg:rect x="15mm" y="19.8mm" width="0.6mm" height="0.6mm" /><svg:rect x="16.8mm" y="19.8mm" width="0.6mm" height="0.6mm" /><svg:rect x="18mm" y="19.8mm" width="0.6mm" height="0.6mm" /><svg:rect x="19.2mm" y="19.8mm" width="0.6mm" height="0.6mm" /><svg:rect x="19.8mm" y="19.8mm" width="0.6mm" height="0.6mm" /><svg:rect x="21mm" y="19.8mm" width="0.6mm" height="0.6mm" /><svg:rect x="21.6mm" y="19.8mm" width="0.6mm" height="0.6mm" /><svg:rect x="2.4mm" y="20.4mm" width="0.6mm" height="0.6mm" /><svg:rect x="3.6mm" y="20.4mm" width="0.6mm" height="0.6mm" /><svg:rect x="4.2mm" y="20.4mm" width="0.6mm" height="0.6mm" /><svg:rect x="4.8mm" y="20.4mm" width="0.6mm" height="0.6mm" /><svg:rect x="6mm" y="20.4mm" width="0.6mm" height="0.6mm" /><svg:rect x="8.4mm" y="20.4mm" width="0.6mm" height="0.6mm" /><svg:rect x="9mm" y="20.4mm" width="0.6mm" height="0.6mm" /><svg:rect x="9.6mm" y="20.4mm" width="0.6mm" height="0.6mm" /><svg:rect x="10.2mm" y="20.4mm" width="0.6mm" height="0.6mm" /><svg:rect x="10.8mm" y="20.4mm" width="0.6mm" height="0.6mm" /><svg:rect x="11.4mm" y="20.4mm" width="0.6mm" height="0.6mm" /><svg:rect x="12mm" y="20.4mm" width="0.6mm" height="0.6mm" /><svg:rect x="12.6mm" y="20.4mm" width="0.6mm" height="0.6mm" /><svg:rect x="13.2mm" y="20.4mm" width="0.6mm" height="0.6mm" /><svg:rect x="14.4mm" y="20.4mm" width="0.6mm" height="0.6mm" /><svg:rect x="18mm" y="20.4mm" width="0.6mm" height="0.6mm" /><svg:rect x="19.2mm" y="20.4mm" width="0.6mm" height="0.6mm" /><svg:rect x="20.4mm" y="20.4mm" width="0.6mm" height="0.6mm" /><svg:rect x="21mm" y="20.4mm" width="0.6mm" height="0.6mm" /><svg:rect x="2.4mm" y="21mm" width="0.6mm" height="0.6mm" /><svg:rect x="6mm" y="21mm" width="0.6mm" height="0.6mm" /><svg:rect x="7.2mm" y="21mm" width="0.6mm" height="0.6mm" /><svg:rect x="8.4mm" y="21mm" width="0.6mm" height="0.6mm" /><svg:rect x="9mm" y="21mm" width="0.6mm" height="0.6mm" /><svg:rect x="10.2mm" y="21mm" width="0.6mm" height="0.6mm" /><svg:rect x="12.6mm" y="21mm" width="0.6mm" height="0.6mm" /><svg:rect x="14.4mm" y="21mm" width="0.6mm" height="0.6mm" /><svg:rect x="15mm" y="21mm" width="0.6mm" height="0.6mm" /><svg:rect x="15.6mm" y="21mm" width="0.6mm" height="0.6mm" /><svg:rect x="16.8mm" y="21mm" width="0.6mm" height="0.6mm" /><svg:rect x="17.4mm" y="21mm" width="0.6mm" height="0.6mm" /><svg:rect x="18mm" y="21mm" width="0.6mm" height="0.6mm" /><svg:rect x="18.6mm" y="21mm" width="0.6mm" height="0.6mm" /><svg:rect x="19.2mm" y="21mm" width="0.6mm" height="0.6mm" /><svg:rect x="2.4mm" y="21.6mm" width="0.6mm" height="0.6mm" /><svg:rect x="3mm" y="21.6mm" width="0.6mm" height="0.6mm" /><svg:rect x="3.6mm" y="21.6mm" width="0.6mm" height="0.6mm" /><svg:rect x="4.2mm" y="21.6mm" width="0.6mm" height="0.6mm" /><svg:rect x="4.8mm" y="21.6mm" width="0.6mm" height="0.6mm" /><svg:rect x="5.4mm" y="21.6mm" width="0.6mm" height="0.6mm" /><svg:rect x="6mm" y="21.6mm" width="0.6mm" height="0.6mm" /><svg:rect x="7.2mm" y="21.6mm" width="0.6mm" height="0.6mm" /><svg:rect x="7.8mm" y="21.6mm" width="0.6mm" height="0.6mm" /><svg:rect x="9.6mm" y="21.6mm" width="0.6mm" height="0.6mm" /><svg:rect x="10.2mm" y="21.6mm" width="0.6mm" height="0.6mm" /><svg:rect x="11.4mm" y="21.6mm" width="0.6mm" height="0.6mm" /><svg:rect x="12.6mm" y="21.6mm" width="0.6mm" height="0.6mm" /><svg:rect x="15mm" y="21.6mm" width="0.6mm" height="0.6mm" /><svg:rect x="16.2mm" y="21.6mm" width="0.6mm" height="0.6mm" /><svg:rect x="16.8mm" y="21.6mm" width="0.6mm" height="0.6mm" /><svg:rect x="17.4mm" y="21.6mm" width="0.6mm" height="0.6mm" /><svg:rect x="19.8mm" y="21.6mm" width="0.6mm" height="0.6mm" /><svg:rect x="21.6mm" y="21.6mm" width="0.6mm" height="0.6mm" /></svg>